<svg width="62" height="45" viewBox="0 0 62 45" fill="none" xmlns="http://www.w3.org/2000/svg">
<path fill-rule="evenodd" clip-rule="evenodd" d="M47.3028 5.25988C48.469 4.95698 50.8047 5.08857 52.1221 5.08898L59.3457 5.08605C59.4884 5.08473 59.6318 5.08424 59.7745 5.08507C60.446 5.09006 60.9893 5.2172 61.4756 5.71495C62.3721 6.63267 62.0538 7.99551 61.0157 8.63976C60.7406 8.75054 60.3368 8.85009 60.044 8.85948C58.9849 8.89326 57.898 8.87775 56.8409 8.87706H50.7598C49.9657 8.87554 49.093 8.81992 48.3106 8.9171C47.7969 8.98099 47.3624 9.52548 47.3575 10.0489C47.3565 10.3761 47.4873 10.6898 47.7207 10.9191C48.1944 11.3863 49.0325 11.2851 49.6719 11.2667C53.4213 11.1246 56.1886 11.4645 58.9854 14.2023C62.9119 18.0102 62.9712 24.3907 59.1065 28.2862C55.6663 31.7535 52.5067 31.3194 48.0538 31.3204L41.1485 31.3234C40.3939 31.3292 39.6913 31.3594 39.0957 30.8009C38.7266 30.4547 38.5195 29.951 38.5147 29.4464C38.5095 28.9295 38.714 28.4323 39.0821 28.0694C39.799 27.3564 40.7539 27.5216 41.6758 27.5148C42.2743 27.5103 42.875 27.518 43.4737 27.5177L51.3799 27.5187C53.3885 27.5076 54.8949 27.1176 56.3526 25.6368C57.5231 24.4684 58.1656 22.8724 58.1319 21.2189C58.106 19.095 57.2542 17.69 55.6807 16.3507C52.4478 13.6136 48.1303 16.6464 45.0616 13.6534C42.2484 10.9096 43.5599 6.23203 47.3028 5.25988ZM15.8936 5.088L19.5293 5.09191L23.5547 5.08702C24.3707 5.08613 25.5007 5.05343 26.2842 5.16417C27.0813 5.2734 27.8481 5.54254 28.5381 5.95616C29.94 6.78872 30.9498 8.14945 31.3399 9.73253C31.7032 11.2205 31.4982 12.9853 30.6963 14.3048C30.2721 15.011 29.7187 15.6318 29.0655 16.1339C27.0271 17.6978 25.1155 17.3234 22.7022 17.3624C21.8227 17.3766 21.0772 17.3162 20.208 17.5304C19.321 17.7458 18.5057 18.189 17.8418 18.8155C15.9404 20.5768 16.0301 22.2981 16.0352 24.6544L16.0489 28.173C16.0531 29.6134 16.1713 30.8955 14.4219 31.3087C11.6285 31.5033 12.3021 28.425 12.2247 26.6778C12.2117 26.3847 12.2164 26.0061 12.2237 25.711C12.2622 24.1576 12.1127 22.51 12.4053 20.9796C12.6059 19.9122 13.0043 18.8917 13.5801 17.9708C14.938 15.7996 17.2643 14.0651 19.8155 13.6417C21.3935 13.3799 23.2229 13.4981 24.8272 13.4894C25.9315 13.4834 26.7739 13.3917 27.3838 12.337C27.6921 11.8106 27.7744 11.182 27.6123 10.5939C27.0482 8.50919 24.8373 8.87057 23.1573 8.8712L17.0713 8.87316C16.092 8.87306 15.1088 8.89023 14.1309 8.86241C13.2512 8.83733 12.5272 8.28831 12.3184 7.42589C12.2017 6.94162 12.2835 6.43041 12.5459 6.00695C12.8663 5.48222 13.3098 5.25322 13.8848 5.11827C14.3996 5.06161 15.3414 5.08756 15.8936 5.088ZM1.61625 0.0362427C2.18433 -0.0243584 2.75143 0.140083 3.17973 0.524524C3.33703 0.656899 3.69306 1.11951 3.71782 1.31554C3.8671 2.50757 3.81342 3.79064 3.81352 4.9923L3.81449 11.1681V23.17C3.8144 25.2275 3.82355 27.2858 3.80278 29.3429C3.79207 30.4034 3.22395 31.034 2.21489 31.2999C1.04433 31.3954 0.0701994 30.7175 0.0283621 29.506C-0.00345626 28.5854 0.00223935 27.6782 0.00199495 26.7579L0.00101838 20.7179L0.00297151 8.2628C0.00311814 6.17386 -0.00680758 4.08495 0.00883088 1.9962C0.0169452 0.913279 0.590422 0.312375 1.61625 0.0362427ZM6.7061 0.033313C7.76199 -0.0790169 8.77536 0.602376 8.84282 1.70128C8.91266 2.83902 8.89067 3.9653 8.89067 5.1046L8.88969 11.4444V23.4064C8.88959 25.403 8.89888 27.4003 8.88383 29.3966C8.87606 30.4302 8.26555 31.0347 7.30571 31.298C6.64043 31.3497 6.16275 31.2257 5.65922 30.7706C4.97882 30.1554 5.09716 29.2997 5.08012 28.4669C5.06736 27.8464 5.08032 27.2151 5.08012 26.5939L5.07914 20.5001V8.2755C5.07944 6.19441 5.07332 4.11323 5.08891 2.03234C5.09717 0.930917 5.65578 0.312634 6.7061 0.033313ZM20.8682 0.0157349C22.6167 0.0161652 25.6618 -0.0752518 27.2813 0.177844C28.46 0.359408 29.5992 0.740795 30.6495 1.30577C36.1011 4.2327 38.2091 11.0541 35.2793 16.5636C33.3891 20.1177 29.6042 22.4525 25.5909 22.4591C24.4496 22.5351 23.1136 22.3315 22.002 22.5411C20.9492 22.7397 21.0721 24.2572 21.0752 24.961L21.0948 27.8214C21.1127 29.3404 21.3682 30.7401 19.5821 31.298C18.2896 31.4038 17.2997 30.7214 17.2989 29.3546C17.2982 28.1922 17.2613 26.9674 17.3067 25.8068C17.372 24.1361 16.9977 22.2133 17.837 20.7062C19.8985 17.1484 24.0714 19.3308 27.3946 18.3155C34.8279 16.0444 34.3799 5.48287 26.7364 3.96202C25.4827 3.71268 23.4957 3.83658 22.1524 3.83702L16.0391 3.83605C15.2789 3.83651 13.7658 3.96267 13.1905 3.57531C11.5884 2.49649 12.077 0.4687 13.8985 0.0352661C14.7232 -0.00548401 15.6729 0.0157838 16.5088 0.0157349H20.8682ZM58.2403 0.0186646C59.6769 0.0177847 61.7122 -0.282037 61.9698 1.69542C62.0337 2.19647 61.8938 2.70226 61.5821 3.09972C61.303 3.45484 60.9053 3.69811 60.462 3.78527C59.9574 3.88771 58.1218 3.83844 57.5118 3.838L51.2657 3.83507C50.0877 3.83507 48.8489 3.75748 47.6817 3.90148C46.0525 4.10258 44.5841 5.01764 43.587 6.3087C42.5576 7.64096 42.1736 9.28089 42.3936 10.9425C42.5528 12.1453 43.0846 13.2454 43.8858 14.1525C47.3719 18.0996 51.6913 14.8213 54.959 17.3321C55.965 18.1051 56.7093 19.2797 56.8731 20.5489C57.0393 21.8354 56.7386 23.1856 55.9385 24.2189C55.0705 25.3399 53.9233 26.0313 52.5147 26.211C52.4859 26.2139 52.4566 26.2167 52.4278 26.2189C51.6932 26.2786 50.599 26.2508 49.8526 26.2511H45.4141L42.1954 26.253C41.2745 26.2547 39.8697 26.4081 39.1524 25.7814C38.7714 25.4447 38.5406 24.9696 38.5108 24.462C38.4759 23.9185 38.6617 23.4862 39.0088 23.0753C39.6091 22.3647 40.4681 22.4516 41.3096 22.4454C41.8778 22.4412 42.457 22.4461 43.0303 22.4464H49.1592C50.0233 22.4447 50.8986 22.4623 51.7608 22.4523C52.1557 22.4477 52.5696 22.3189 52.836 22.0069C53.0349 21.7734 53.1314 21.4688 53.1026 21.1632C52.969 19.8056 51.0378 20.0562 50.0538 20.089C46.8896 20.1943 44.5609 19.7827 42.0704 17.7296C37.8319 14.2359 37.2813 7.74357 40.8741 3.59777C42.8158 1.35757 44.9866 0.275013 47.9561 0.0469849C48.5441 -0.0162676 49.6766 0.0152939 50.3047 0.0167114L54.3174 0.0186646H58.2403Z" fill="#E61515"/>
<path d="M48.4941 37.6794C51.3754 37.6158 51.2339 38.7839 51.2314 41.1531L51.2285 44.1619H49.832C49.7451 43.9524 49.6357 43.7277 49.54 43.5203C48.5068 44.2776 47.3086 44.5771 46.2461 43.7029C45.8604 43.2145 45.8316 42.9976 45.7891 42.3894C45.609 39.7989 47.6286 40.1807 49.5186 40.1667C49.5181 39.9296 49.5098 39.3551 49.3291 39.2351C48.8045 38.8885 46.6289 39.1346 46.002 39.1785L46.0059 38.0906C46.89 37.7934 47.4099 37.7377 48.3379 37.6853C48.39 37.6821 48.4421 37.6803 48.4941 37.6794ZM31.9326 37.7791C33.1243 37.6152 35.1306 37.6248 35.377 39.1013C35.5163 39.7187 35.5331 40.7347 35.0645 41.2273C34.4185 41.9058 32.5862 41.654 31.6631 41.7078C31.741 42.8357 32.3041 42.8709 33.3252 42.8484C33.8456 42.8371 34.3729 42.8059 34.8926 42.7605C35.3143 42.7176 35.3815 42.7811 35.3584 43.2292C35.3471 43.4487 35.3399 43.6768 35.3359 43.8972C34.3445 44.1797 31.6209 44.4971 30.7861 43.8708C29.6726 43.035 29.7346 39.598 30.46 38.4822C30.7686 38.0079 31.4103 37.8574 31.9326 37.7791ZM17.2178 34.7595C17.5763 34.7933 18.5311 34.7741 18.9307 34.7761L18.9287 44.1638L17.499 44.1648C17.3883 43.9278 17.3448 43.7948 17.2676 43.5437C16.5285 44.007 16.1095 44.1921 15.2266 44.2263C14.0867 44.1939 13.4351 43.3538 13.3281 42.2605C13.0123 39.0334 13.3635 36.7603 17.2109 38.0789L17.2178 34.7595ZM23.8643 34.7595C24.2334 34.7933 25.168 34.774 25.5771 34.7761L25.5762 44.1638L24.1465 44.1648C24.0358 43.928 23.9922 43.7951 23.915 43.5437C23.1762 44.0074 22.757 44.1921 21.874 44.2263C20.7343 44.1938 20.0818 43.3536 19.9746 42.2605C19.6586 39.0346 20.0116 36.7593 23.8584 38.0789L23.8643 34.7595ZM60.4766 37.7947L61.8945 37.7859L61.8936 39.1169L60.4736 39.1267C60.4722 40.0509 60.3341 41.9301 60.7148 42.6589C61.0477 42.8831 61.4519 42.9831 61.835 43.0886C61.8047 43.3614 61.8081 43.7875 61.8027 44.074L61.7822 44.1267C61.594 44.2162 61.4211 44.1355 61.25 44.1658C58.1375 44.7184 58.7583 41.423 58.7607 39.1208L57.7373 39.1228V38.1169C58.0837 38.0104 58.4305 37.906 58.7783 37.8044C58.8599 37.2116 58.9477 36.6195 59.04 36.0281L60.4727 36.0183L60.4766 37.7947ZM53.5352 37.7312C54.5573 37.72 56.0873 37.7295 57.0371 38.0271C57.0444 38.3891 57.0366 38.7745 57.0352 39.1384C56.2154 39.1506 55.1972 39.1798 54.3965 39.1316C53.3601 39.0693 53.6769 40.0907 53.8076 40.1375C54.7579 40.4422 55.9996 39.9357 56.8555 40.6013C57.4171 41.0729 57.3521 41.9605 57.3389 42.6169C57.3187 43.6319 56.8425 44.1212 55.875 44.2166C54.6207 44.2351 53.4413 44.1993 52.2129 43.9255L52.2197 42.7898L54.2539 42.7927C54.4729 42.7932 55.4049 42.8543 55.5176 42.6775C55.7424 42.3422 55.7144 41.8265 55.2393 41.7654C54.1496 41.6255 52.0992 42.0669 51.9717 40.4119C51.8637 39.0071 51.8777 37.8842 53.5352 37.7312ZM40.8086 35.4275C41.5662 35.3275 44.2852 35.5243 45.166 35.574L45.165 37.0173C44.4158 37.0352 41.895 36.9016 41.2383 37.1873C41.0328 37.2768 41.0964 38.6345 41.1016 38.988C42.1451 39.0761 43.5579 39.0825 44.6279 39.1248L44.6221 40.5417C43.4491 40.5878 42.2759 40.6242 41.1025 40.6521C41.1015 41.1393 41.1035 41.6271 41.1084 42.114C41.2364 42.5864 41.4825 42.5745 41.9551 42.5779C43.0143 42.5862 44.1073 42.5735 45.1631 42.571L45.165 44.0066C44.0232 44.0692 41.0182 44.4664 40.1016 43.9304C39.8009 43.7544 39.5724 43.4806 39.4873 43.1404C39.3164 42.4549 39.3252 37.9007 39.4131 37.0242C39.4434 36.7216 39.4917 36.3789 39.6562 36.1169C39.9168 35.7023 40.3492 35.5281 40.8086 35.4275ZM28.249 34.7996C28.2481 35.8053 28.1167 42.0192 28.4131 42.5222C28.6231 42.8783 29.2355 42.9831 29.5986 43.0857C29.5826 43.4244 29.5881 43.8197 29.585 44.1628C28.9304 44.1687 27.5102 44.2903 27.0693 43.7947C26.3444 42.9797 26.5351 40.872 26.5352 39.8533L26.5381 34.7927L28.249 34.7996ZM6.44629 35.3777C7.16477 35.4199 8.07807 35.3981 8.81152 35.3982C9.11862 38.2885 9.3101 41.2917 9.64258 44.1619L7.93457 44.1648C7.76493 43.1431 7.67189 41.4804 7.56055 40.3875C7.48531 39.7382 7.42962 39.0869 7.39355 38.4343L6.50977 42.0828C6.36161 42.6953 6.1252 43.5679 6.03027 44.1667L4.0918 44.1638C3.9684 43.653 2.80486 38.804 2.72461 38.6716C2.53118 39.1311 2.24817 43.3177 2.18164 44.1628L0.487305 44.1648C0.701063 41.2377 1.02287 38.3067 1.23242 35.3835C1.77931 35.4359 3.03871 35.3968 3.625 35.3855C3.797 36.3228 4.15292 37.593 4.37891 38.5408C4.54938 39.2558 4.85371 40.6307 5.08594 41.282C5.1369 40.692 5.39798 39.7467 5.54688 39.1345C5.85913 37.8855 6.15916 36.6327 6.44629 35.3777ZM12.2773 37.7996L12.2803 41.8943C12.2812 42.4798 12.3138 43.5542 12.2559 44.1091C12.1275 44.1872 12.0156 44.1609 11.8447 44.1648L10.5586 44.1628L10.5645 37.8025L11.0215 37.7878C11.4332 37.7835 11.8641 37.7951 12.2773 37.7996ZM49.5098 41.2634C49.37 41.2704 48.9286 41.2821 48.8145 41.3025C48.498 41.326 47.7318 41.3482 47.5928 41.6277C47.2865 42.2451 47.531 42.8769 48.2627 42.8308C48.748 42.735 49.0646 42.5995 49.5107 42.3884L49.5098 41.2634ZM17.2305 39.2937C16.6183 39.1334 16.1456 39.0132 15.501 39.0857C14.7897 39.6358 14.848 41.7905 15.293 42.5134C15.5361 42.9065 16.303 42.7015 16.6572 42.616C16.8495 42.5451 17.0477 42.4744 17.2354 42.3933L17.2305 39.2937ZM23.8584 39.2937C23.2461 39.1333 22.7736 39.0131 22.1289 39.0857C21.4178 39.6357 21.4751 41.7904 21.9199 42.5134C22.1627 42.9067 22.9296 42.7016 23.2842 42.616C23.4765 42.5451 23.6747 42.4744 23.8623 42.3933L23.8584 39.2937ZM33.4717 39.2302C33.1404 39.0105 32.6461 39.0664 32.2627 39.0925C31.6391 39.3624 31.6855 39.8155 31.6738 40.4158C32.1757 40.4265 32.682 40.4424 33.1836 40.4294C33.3623 40.398 33.4972 40.412 33.6113 40.2458C33.8478 39.9014 33.8511 39.4821 33.4717 39.2302ZM10.5771 35.5183C11.1555 35.494 11.7352 35.4953 12.3135 35.5222L12.2607 37.1394H10.5781C10.5781 37.1161 10.5776 35.5183 10.5771 35.5183Z" fill="#121212"/>
</svg>
