<svg width="24" height="24" viewBox="0 0 24 24" fill="none" xmlns="http://www.w3.org/2000/svg">
<path d="M11.9961 15.7793C11.8868 15.7793 11.7826 15.7585 11.6836 15.717C11.5844 15.6757 11.489 15.6095 11.3973 15.5185L7.55659 11.6778C7.38675 11.5033 7.306 11.299 7.31434 11.065C7.32267 10.831 7.4085 10.6291 7.57184 10.4593C7.74984 10.2888 7.95659 10.2046 8.19209 10.2068C8.42742 10.2091 8.63009 10.2953 8.80009 10.4653L11.1483 12.8325V4.70226C11.1483 4.46226 11.2307 4.25935 11.3953 4.09351C11.5598 3.92751 11.7629 3.84451 12.0046 3.84451C12.2461 3.84451 12.4477 3.92751 12.6093 4.09351C12.771 4.25935 12.8518 4.46226 12.8518 4.70226V12.8325L15.2251 10.4653C15.3918 10.2953 15.5885 10.2123 15.8153 10.2163C16.0423 10.2204 16.2443 10.3076 16.4211 10.4778C16.5893 10.6481 16.6724 10.852 16.6706 11.0895C16.6686 11.327 16.5826 11.5314 16.4126 11.7028L12.6028 15.5185C12.5108 15.6095 12.414 15.6757 12.3123 15.717C12.2108 15.7585 12.1054 15.7793 11.9961 15.7793ZM5.55384 20.1495C5.09384 20.1495 4.695 19.9806 4.35734 19.6428C4.0195 19.3051 3.85059 18.9063 3.85059 18.4463V15.7228C3.85059 15.4824 3.93284 15.2804 4.09734 15.1168C4.26184 14.9531 4.46492 14.8713 4.70659 14.8713C4.94825 14.8713 5.14992 14.9531 5.31159 15.1168C5.47309 15.2804 5.55384 15.4824 5.55384 15.7228V18.4463H18.4463V15.7228C18.4463 15.4824 18.5286 15.2804 18.6931 15.1168C18.8576 14.9531 19.0605 14.8713 19.3018 14.8713C19.5432 14.8713 19.7458 14.9531 19.9096 15.1168C20.0736 15.2804 20.1556 15.4824 20.1556 15.7228V18.4463C20.1556 18.9063 19.9861 19.3051 19.6471 19.6428C19.3083 19.9806 18.908 20.1495 18.4463 20.1495H5.55384Z" fill="white"/>
</svg>
