<svg width="24" height="24" viewBox="0 0 24 24" fill="none" xmlns="http://www.w3.org/2000/svg">
<path d="M12.001 2.34473C13.3262 2.34473 14.5711 2.59931 15.7402 3.10645C16.9187 3.61762 17.9434 4.31054 18.8174 5.18457C19.6912 6.05846 20.3834 7.08253 20.8945 8.26074C21.4017 9.42988 21.6562 10.6748 21.6562 12C21.6562 13.3252 21.4017 14.5701 20.8945 15.7393C20.3834 16.9177 19.6914 17.9424 18.8174 18.8164C17.9435 19.6903 16.9192 20.3815 15.7412 20.8906C14.5721 21.3959 13.3273 21.6494 12.002 21.6494C10.6766 21.6494 9.43114 21.3962 8.26172 20.8916C7.23109 20.447 6.31785 19.8622 5.51953 19.1367L5.18457 18.8174C4.30939 17.9425 3.61763 16.918 3.10938 15.7402C2.60483 14.5712 2.35156 13.3263 2.35156 12.001C2.35156 10.6758 2.60501 9.43063 3.11035 8.26074C3.61951 7.0822 4.31168 6.05844 5.18555 5.18457C6.05955 4.31059 7.08329 3.61761 8.26172 3.10645C9.4309 2.5993 10.6757 2.34474 12.001 2.34473ZM12.001 3.05371C9.54603 3.05373 7.43128 3.93461 5.68359 5.68164C3.93597 7.42874 3.05474 9.54402 3.05469 12C3.05469 14.4589 3.93563 16.5754 5.68359 18.3213C7.43109 20.0667 9.54492 20.9463 11.998 20.9463C14.4511 20.9463 16.5658 20.0667 18.3154 18.3213C20.0654 16.5756 20.9473 14.4602 20.9473 12.0029C20.9472 9.54596 20.0655 7.43032 18.3164 5.68262C16.5675 3.93531 14.4535 3.05371 12.001 3.05371ZM12.0771 7.19922C12.1909 7.19922 12.2543 7.23176 12.3066 7.28418V7.2832C12.3592 7.33584 12.3915 7.40033 12.3916 7.51465V11.8672L12.5371 12.0137L15.8779 15.3828L15.8799 15.3848C15.9509 15.4558 15.9824 15.5296 15.9824 15.6348C15.9824 15.7396 15.951 15.8085 15.8838 15.874V15.875C15.8108 15.9462 15.7274 15.9841 15.6064 15.9883C15.5133 15.9915 15.4482 15.9658 15.3779 15.8906L15.3721 15.8848L11.8652 12.2539C11.8451 12.2283 11.8286 12.2046 11.8154 12.1826L11.7812 12.1152L11.7666 12.0605C11.7629 12.0397 11.7607 12.0159 11.7607 11.9883V7.51465C11.7608 7.40131 11.7919 7.33696 11.8447 7.28418L11.8457 7.28516C11.8993 7.23183 11.9635 7.19925 12.0771 7.19922Z" fill="#C00003" stroke="#C00003"/>
</svg>
