<svg width="19" height="19" viewBox="0 0 19 19" fill="none" xmlns="http://www.w3.org/2000/svg">
<path d="M13.3613 10.1623L11.0265 13.9271C10.8932 14.1477 10.7047 14.2331 10.461 14.1831C10.2173 14.1331 10.0622 13.9894 9.9955 13.7521L9.1765 10.4448L1.61625 17.9683C1.44625 18.1421 1.24733 18.2291 1.0195 18.2291C0.791666 18.2291 0.59275 18.1421 0.42275 17.9683C0.252917 17.7983 0.168 17.5994 0.168 17.3716C0.168 17.1437 0.252917 16.9448 0.42275 16.7748L7.958 9.24556L4.639 8.42631C4.40167 8.35964 4.259 8.20456 4.211 7.96106C4.163 7.71739 4.24733 7.52689 4.464 7.38956L8.22875 5.02981L7.92275 0.628059C7.90608 0.374059 8.01125 0.188726 8.23825 0.0720588C8.46525 -0.0446078 8.67242 -0.0196078 8.85975 0.147059L12.2375 2.98781L16.333 1.34606C16.5663 1.26272 16.7683 1.30639 16.939 1.47706C17.1097 1.64773 17.1533 1.84973 17.07 2.08306L15.4033 6.17856L18.244 9.56231C18.4107 9.74964 18.4398 9.95681 18.3315 10.1838C18.2232 10.4108 18.042 10.516 17.788 10.4993L13.3613 10.1623ZM0.137 3.43956C0.0456666 3.35223 0 3.24956 0 3.13156C0 3.01373 0.0456666 2.90914 0.137 2.81781L1.35875 1.59606C1.44608 1.50872 1.54867 1.46506 1.6665 1.46506C1.7845 1.46506 1.88917 1.50872 1.9805 1.59606L3.17125 2.79281C3.26242 2.88414 3.308 2.98773 3.308 3.10356C3.308 3.21956 3.26242 3.32323 3.17125 3.41456L1.9495 4.63631C1.85817 4.72748 1.7545 4.77306 1.6385 4.77306C1.52267 4.77306 1.41908 4.72748 1.32775 4.63631L0.137 3.43956ZM10.9625 10.9771L12.5015 8.49881L15.4238 8.71781L13.5218 6.47756L14.6228 3.77431L11.9195 4.86931L9.67325 2.96731L9.89825 5.88956L7.414 7.44756L10.2612 8.15481L10.9625 10.9771ZM15.0015 18.2791L13.7797 17.0633C13.6886 16.972 13.6472 16.8684 13.6555 16.7526C13.6638 16.6366 13.7136 16.5329 13.8048 16.4416L15.0015 15.2508C15.0888 15.1595 15.1915 15.1138 15.3095 15.1138C15.4273 15.1138 15.5319 15.1595 15.6233 15.2508L16.845 16.4666C16.9323 16.5579 16.9718 16.6616 16.9635 16.7776C16.9552 16.8934 16.9073 16.997 16.82 17.0883L15.6233 18.2791C15.5319 18.3704 15.4283 18.4161 15.3125 18.4161C15.1965 18.4161 15.0928 18.3704 15.0015 18.2791Z" fill="#FF0005"/>
</svg>
