<svg width="24" height="24" viewBox="0 0 24 24" fill="none" xmlns="http://www.w3.org/2000/svg">
<path d="M11.9994 22.0898C9.74107 22.0898 7.82824 21.306 6.26091 19.7385C4.69374 18.1712 3.91016 16.2583 3.91016 14C3.91016 12.072 4.50599 10.1953 5.69766 8.37C6.88932 6.54467 8.52882 4.98242 10.6162 3.68325C10.9353 3.47592 11.2607 3.47025 11.5924 3.66625C11.9239 3.86209 12.0897 4.15992 12.0897 4.55975V6.29725C12.0897 6.83925 12.2768 7.29359 12.6512 7.66025C13.0255 8.02692 13.4834 8.21025 14.0249 8.21025C14.3129 8.21025 14.5811 8.14984 14.8294 8.029C15.0777 7.90817 15.298 7.72659 15.4902 7.48425C15.631 7.31959 15.7938 7.20675 15.9787 7.14575C16.1635 7.08475 16.3389 7.10825 16.5049 7.21625C17.6212 7.98625 18.4978 8.96892 19.1347 10.1643C19.7713 11.3594 20.0897 12.638 20.0897 14C20.0897 16.2583 19.3059 18.1712 17.7384 19.7385C16.1709 21.306 14.2579 22.0898 11.9994 22.0898ZM5.61941 14C5.61941 14.9863 5.83699 15.9151 6.27216 16.7863C6.70732 17.6574 7.31799 18.3873 8.10416 18.976C8.03749 18.7928 7.98749 18.6038 7.95416 18.409C7.92082 18.2142 7.90416 18.0228 7.90416 17.8348C7.92416 17.3214 8.03516 16.8413 8.23716 16.3945C8.43916 15.9478 8.72582 15.5388 9.09716 15.1675L11.9999 12.3088L14.9087 15.1675C15.28 15.5388 15.5667 15.9478 15.7687 16.3945C15.9707 16.8413 16.0797 17.3214 16.0957 17.8348C16.0957 18.0228 16.079 18.2142 16.0457 18.409C16.0123 18.6038 15.9643 18.7928 15.9017 18.976C16.6798 18.3873 17.2885 17.6574 17.7277 16.7863C18.1668 15.9151 18.3864 14.9863 18.3864 14C18.3864 13.1318 18.2025 12.2813 17.8347 11.4485C17.4668 10.6157 16.9389 9.84934 16.2509 9.1495C15.9009 9.3875 15.5356 9.57434 15.1549 9.71C14.7742 9.84567 14.3975 9.9135 14.0247 9.9135C13.0202 9.9135 12.1816 9.58067 11.5089 8.915C10.8362 8.24917 10.478 7.39925 10.4342 6.36525V5.86525C8.95716 6.94025 7.78549 8.21225 6.91916 9.68125C6.05266 11.1501 5.61941 12.5897 5.61941 14ZM11.9999 14.6958L10.2922 16.3848C10.0618 16.6109 9.88716 16.8602 9.76816 17.1325C9.64916 17.405 9.58966 17.7021 9.58966 18.0238C9.58966 18.6821 9.82366 19.2394 10.2917 19.6958C10.7598 20.1523 11.3296 20.3805 12.0009 20.3805C12.6724 20.3805 13.2418 20.1518 13.7092 19.6945C14.1765 19.2372 14.4102 18.6791 14.4102 18.0203C14.4102 17.7028 14.3508 17.4078 14.2322 17.1353C14.1133 16.8626 13.9413 16.6132 13.7162 16.387L11.9999 14.6958Z" fill="#C00003"/>
</svg>
