<svg width="24" height="24" viewBox="0 0 24 24" fill="none" xmlns="http://www.w3.org/2000/svg">
<path d="M12.5241 15.75C13.1004 15.75 13.6654 15.6292 14.2189 15.3875C14.7724 15.1458 15.2658 14.7917 15.6991 14.325C15.7991 14.2083 15.8449 14.1167 15.8366 14.05C15.8283 13.9833 15.7491 13.9333 15.5991 13.9C14.9491 13.7667 14.3324 13.5042 13.7491 13.1125C13.1658 12.7208 12.6845 12.2086 12.3054 11.5757C11.9442 10.9772 11.732 10.3317 11.6689 9.639C11.6057 8.94633 11.6908 8.275 11.9241 7.625C11.9741 7.475 11.9658 7.375 11.8991 7.325C11.8324 7.275 11.7166 7.26775 11.5516 7.30325C10.5166 7.53442 9.70328 8.05417 9.11161 8.8625C8.51994 9.67083 8.22411 10.55 8.22411 11.5C8.22411 12.6805 8.64078 13.684 9.47411 14.5105C10.3074 15.3368 11.3241 15.75 12.5241 15.75ZM11.9991 22.0435C11.8984 22.0435 11.8042 22.0342 11.7164 22.0155C11.6284 21.9968 11.5424 21.9688 11.4584 21.9315C9.12169 21.1482 7.26944 19.7259 5.90161 17.6647C4.53361 15.6034 3.84961 13.3559 3.84961 10.9222V6.06675C3.84961 5.70208 3.95119 5.37241 4.15436 5.07775C4.35753 4.78308 4.62478 4.572 4.95611 4.4445L11.4024 2.0375C11.6057 1.96283 11.8046 1.9255 11.9991 1.9255C12.1936 1.9255 12.3925 1.96283 12.5959 2.0375L19.0421 4.4445C19.3734 4.572 19.6417 4.78308 19.8469 5.07775C20.052 5.37241 20.1546 5.70208 20.1546 6.06675V10.9222C20.1546 13.3559 19.4696 15.6034 18.0996 17.6647C16.7298 19.7259 14.8765 21.1482 12.5399 21.9315C12.4559 21.9688 12.3699 21.9968 12.2819 22.0155C12.194 22.0342 12.0998 22.0435 11.9991 22.0435ZM11.9991 20.3772C13.8958 19.7239 15.4444 18.5271 16.6449 16.7867C17.8452 15.0462 18.4454 13.0929 18.4454 10.9267V6.06675L11.9991 3.63475L5.55286 6.06975V10.924C5.55286 13.092 6.15303 15.0462 7.35336 16.7867C8.55386 18.5271 10.1024 19.7239 11.9991 20.3772Z" fill="#C00003"/>
</svg>
