<svg width="24" height="24" viewBox="0 0 24 24" fill="none" xmlns="http://www.w3.org/2000/svg">
<path d="M11.9991 22.1495C9.67378 22.1495 7.73419 21.3517 6.18036 19.7562C4.62653 18.1606 3.84961 16.1752 3.84961 13.8C3.84961 12.7732 4.07636 11.7477 4.52986 10.7237C4.98319 9.69958 5.56444 8.70317 6.27361 7.7345C6.98261 6.76583 7.76694 5.84175 8.62661 4.96225C9.48611 4.08275 10.3264 3.27617 11.1474 2.5425C11.28 2.4305 11.4171 2.35067 11.5586 2.303C11.6999 2.25533 11.847 2.2315 11.9999 2.2315C12.1527 2.2315 12.2995 2.25533 12.4404 2.303C12.5814 2.35067 12.7182 2.4305 12.8509 2.5425C13.6719 3.27617 14.5121 4.08275 15.3716 4.96225C16.2313 5.84175 17.0156 6.76583 17.7246 7.7345C18.4338 8.70317 19.016 9.69958 19.4714 10.7237C19.9269 11.7477 20.1546 12.7732 20.1546 13.8C20.1546 16.1752 19.3767 18.1606 17.8209 19.7562C16.265 21.3517 14.3244 22.1495 11.9991 22.1495ZM11.9999 20.4462C13.85 20.4462 15.3869 19.8135 16.6104 18.548C17.8337 17.2827 18.4454 15.7 18.4454 13.8C18.4454 12.5033 17.8962 11.0264 16.7979 9.36925C15.6994 7.71225 14.0998 5.94841 11.9991 4.07775C9.89844 5.94841 8.29886 7.71225 7.20036 9.36925C6.10203 11.0264 5.55286 12.5033 5.55286 13.8C5.55286 15.7 6.16486 17.2827 7.38886 18.548C8.61269 19.8135 10.1497 20.4462 11.9999 20.4462ZM11.9861 18.776C12.2648 18.776 12.4809 18.7253 12.6344 18.624C12.788 18.5227 12.8649 18.3761 12.8649 18.1842C12.8649 17.9889 12.789 17.8362 12.6374 17.7262C12.4857 17.6164 12.2603 17.5615 11.9611 17.5615C11.2411 17.5615 10.5385 17.3427 9.85336 16.905C9.16836 16.4672 8.72778 15.7138 8.53161 14.645C8.49828 14.4912 8.42036 14.3634 8.29786 14.2617C8.17519 14.1601 8.03919 14.1092 7.88986 14.1092C7.68736 14.1092 7.53294 14.1841 7.42661 14.3337C7.32028 14.4834 7.28378 14.6392 7.31711 14.801C7.56711 16.205 8.15911 17.2185 9.09311 17.8415C10.0271 18.4645 10.9914 18.776 11.9861 18.776Z" fill="#C00003"/>
</svg>
