<svg width="28" height="28" viewBox="0 0 28 28" fill="none" xmlns="http://www.w3.org/2000/svg">
<path d="M19.8842 20.3817L17.4336 22.8326C17.2353 23.0354 17.0032 23.1368 16.7374 23.1368C16.4714 23.1368 16.2393 23.0354 16.0412 22.8326C15.8428 22.6342 15.7437 22.4033 15.7437 22.1399C15.7437 21.8762 15.8428 21.643 16.0412 21.4401L18.4918 18.9896L16.0412 16.5387C15.8428 16.3405 15.7437 16.1085 15.7437 15.8425C15.7437 15.5767 15.8428 15.3446 16.0412 15.1463C16.2393 14.9481 16.4714 14.8491 16.7374 14.8491C17.0032 14.8491 17.2353 14.9481 17.4336 15.1463L19.8842 17.5971L22.3418 15.1463C22.5401 14.9481 22.771 14.8491 23.0345 14.8491C23.2979 14.8491 23.5312 14.9481 23.7342 15.1463C23.9323 15.3446 24.0314 15.5767 24.0314 15.8425C24.0314 16.1085 23.9323 16.3405 23.7342 16.5387L21.2766 18.9896L23.7342 21.4401C23.9323 21.643 24.0314 21.8762 24.0314 22.1399C24.0314 22.4033 23.9323 22.6342 23.7342 22.8326C23.5312 23.0354 23.2979 23.1368 23.0345 23.1368C22.771 23.1368 22.5401 23.0354 22.3418 22.8326L19.8842 20.3817ZM19.1999 9.77844L23.7176 5.25381C23.9159 5.05548 24.1503 4.96117 24.4208 4.9709C24.6914 4.98062 24.9258 5.08465 25.124 5.28298C25.3223 5.48131 25.4203 5.71338 25.418 5.97919C25.4156 6.24499 25.3153 6.47706 25.117 6.6754L19.8961 11.8892C19.698 12.0876 19.4648 12.1879 19.1964 12.1902C18.9283 12.1926 18.6951 12.0946 18.4967 11.8962L15.5871 8.97956C15.3842 8.78123 15.2828 8.54916 15.2828 8.28335C15.2828 8.01755 15.3842 7.78548 15.5871 7.58715C15.7854 7.38881 16.0175 7.29451 16.2833 7.30423C16.5493 7.31395 16.7813 7.40826 16.9795 7.58715L19.1999 9.77844ZM3.18043 17.673H11.812C12.0973 17.673 12.3342 17.7673 12.5228 17.9559C12.7112 18.1445 12.8054 18.3814 12.8054 18.6667C12.8054 18.9519 12.7112 19.1889 12.5228 19.3775C12.3342 19.5661 12.0973 19.6604 11.812 19.6604H3.18043C2.89518 19.6604 2.65825 19.5661 2.46964 19.3775C2.28122 19.1889 2.18701 18.9519 2.18701 18.6667C2.18701 18.3814 2.28122 18.1445 2.46964 17.9559C2.65825 17.7673 2.89518 17.673 3.18043 17.673ZM3.18043 8.33965H11.812C12.0973 8.33965 12.3342 8.43395 12.5228 8.62256C12.7112 8.81117 12.8054 9.0481 12.8054 9.33335C12.8054 9.6186 12.7112 9.85554 12.5228 10.0441C12.3342 10.2328 12.0973 10.3271 11.812 10.3271H3.18043C2.89518 10.3271 2.65825 10.2328 2.46964 10.0441C2.28122 9.85554 2.18701 9.6186 2.18701 9.33335C2.18701 9.0481 2.28122 8.81117 2.46964 8.62256C2.65825 8.43395 2.89518 8.33965 3.18043 8.33965Z" fill="#C00003"/>
</svg>
