<svg width="20" height="20" viewBox="0 0 20 20" fill="none" xmlns="http://www.w3.org/2000/svg">
<path d="M2.54246 20.0028C1.84051 20.0028 1.24124 19.7546 0.744625 19.2582C0.248208 18.7615 0 18.1623 0 17.4603V1.78819C0 0.998942 0.367986 0.454302 1.10396 0.154274C1.83993 -0.145948 2.49599 -0.00798945 3.07213 0.56815L4.37763 1.87365L3.07592 3.17565L3.87713 3.97686L5.17913 2.67515L8.57763 6.07365L7.27592 7.37565L8.07713 8.17686L9.37913 6.87515L12.8068 10.3028L11.5051 11.6048L12.3063 12.406L13.6083 11.1043L17.0068 14.5028L15.7051 15.8048L16.5063 16.606L17.8083 15.3043L19.1138 16.6098C19.7483 17.2443 19.9057 17.9684 19.586 18.7822C19.2665 19.5959 18.683 20.0028 17.8354 20.0028H2.54246ZM2.57046 17.4323H15.8025L2.57046 4.20028V17.4323Z" fill="#C00003"/>
</svg>
