<svg width="327" height="163" viewBox="0 0 327 163" fill="none" xmlns="http://www.w3.org/2000/svg">
<g clip-path="url(#clip0_748_26795)">
<path d="M265 86.4883C265 119.625 219.333 146.488 163 146.488C106.667 146.488 61 119.625 61 86.4883C61 53.3512 106.667 26.4883 163 26.4883C219.333 26.4883 265 53.3512 265 86.4883Z" stroke="#DD0004" stroke-linecap="round" stroke-dasharray="8 8"/>
<path d="M201.406 50.0893H123.703C123.76 32.5335 135.462 17.7195 151.488 12.9659L150.77 8H172.785L172.088 12.5453C188.896 16.7854 201.347 31.9784 201.406 50.0893Z" fill="white"/>
<path d="M162.425 92.6966C180.378 92.6966 194.931 76.5777 194.931 56.6941C194.931 54.438 194.744 52.2304 194.385 50.0893H130.465C130.107 52.2304 129.919 54.438 129.919 56.6941C129.919 76.5777 144.473 92.6966 162.425 92.6966Z" fill="white"/>
<path d="M118.264 50.0893H123.703M123.703 50.0893H201.406M123.703 50.0893C123.703 50.1324 123.703 50.1756 123.703 50.2188M123.703 50.0893C123.76 32.5335 135.462 17.7195 151.488 12.9659M201.406 50.0893H206.586M201.406 50.0893C201.347 31.9784 188.896 16.7854 172.088 12.5453M201.406 50.0893C201.406 50.1324 201.406 50.1756 201.406 50.2188M151.488 12.9659C154.995 11.9256 158.71 11.3671 162.555 11.3671C165.844 11.3671 169.037 11.7759 172.088 12.5453M151.488 12.9659L155.043 37.5273M151.488 12.9659L150.77 8H172.785L172.088 12.5453M172.088 12.5453L168.253 37.5273M194.931 56.6941C194.931 76.5777 180.378 92.6966 162.425 92.6966C144.473 92.6966 129.919 76.5777 129.919 56.6941C129.919 54.438 130.107 52.2304 130.465 50.0893H194.385C194.744 52.2304 194.931 54.438 194.931 56.6941Z" stroke="#DD0004" stroke-width="2.07209" stroke-linecap="round"/>
<path d="M208.914 99.6917C200.004 106.219 188.798 109.663 184.309 110.57C183.618 117.261 183.687 132.586 189.489 140.356C195.29 148.126 204.856 153.608 208.914 155.379C212.972 153.608 222.538 148.126 228.34 140.356C234.142 132.586 234.211 117.261 233.52 110.57C229.03 109.663 217.824 106.219 208.914 99.6917Z" fill="white"/>
<path d="M208.914 99.6917C200.004 106.219 188.798 109.663 184.309 110.57C183.618 117.261 183.687 132.586 189.489 140.356C195.29 148.126 204.856 153.608 208.914 155.379M208.914 99.6917L208.915 99.6914M208.914 99.6917C217.824 106.219 229.03 109.663 233.52 110.57C234.211 117.261 234.142 132.586 228.34 140.356C222.538 148.126 212.972 153.608 208.914 155.379M208.914 99.6917L208.914 99.6914M208.914 155.379L208.915 155.379M208.914 155.379L208.914 155.379M197.129 126.37L206.195 135.435L224.973 116.657" stroke="#DD0004" stroke-width="2.07209" stroke-linecap="round"/>
</g>
<defs>
<clipPath id="clip0_748_26795">
<rect width="326.5" height="162.51" fill="white"/>
</clipPath>
</defs>
</svg>
