<svg width="24" height="24" viewBox="0 0 24 24" fill="none" xmlns="http://www.w3.org/2000/svg">
<path d="M10.7917 17.918L7.16158 21.5408C6.99222 21.715 6.77435 21.8009 6.50796 21.7986C6.24157 21.7963 6.01397 21.7103 5.82517 21.5408C5.63617 21.3519 5.54167 21.1243 5.54167 20.858C5.54167 20.5916 5.63617 20.364 5.82517 20.1752L10.7917 15.2084V12.6951H8.27838L3.39908 17.5671C3.22972 17.7413 3.01185 17.8333 2.74546 17.843C2.47907 17.8527 2.25147 17.7705 2.06267 17.5963C1.869 17.4074 1.76847 17.181 1.76108 16.917C1.75369 16.6529 1.85422 16.4168 2.06267 16.2085L5.56879 12.6951H0.922542C0.665875 12.6951 0.448 12.6043 0.268916 12.4227C0.0896387 12.2413 0 12.0148 0 11.7434C0 11.4867 0.0908055 11.264 0.272417 11.0752C0.453833 10.8862 0.680264 10.7917 0.951708 10.7917H5.56879L1.946 7.19075C1.75233 7.00194 1.65667 6.77435 1.659 6.50796C1.66133 6.24157 1.757 6.01397 1.946 5.82517C2.13481 5.63617 2.3624 5.54167 2.62879 5.54167C2.89518 5.54167 3.12278 5.63617 3.31158 5.82517L8.27838 10.7917H10.7917V8.24221L5.91967 3.39908C5.74544 3.22972 5.65833 3.01185 5.65833 2.74546C5.65833 2.47907 5.74544 2.25147 5.91967 2.06267C6.10847 1.869 6.3349 1.77217 6.59896 1.77217C6.86301 1.77217 7.09917 1.869 7.30742 2.06267L10.7917 5.53963V0.951709C10.7917 0.695042 10.8825 0.472307 11.0641 0.283501C11.2455 0.0945009 11.4719 0 11.7434 0C12 0 12.2228 0.0945009 12.4116 0.283501C12.6006 0.472307 12.6951 0.695042 12.6951 0.951709V5.53963L16.296 1.946C16.4848 1.75233 16.7124 1.65667 16.9788 1.659C17.2452 1.66133 17.4728 1.757 17.6616 1.946C17.8311 2.13481 17.9159 2.3624 17.9159 2.62879C17.9159 2.89518 17.8214 3.12278 17.6324 3.31158L12.6951 8.24221V10.7917H15.2445L20.1168 5.91267C20.2862 5.74311 20.5041 5.65833 20.7705 5.65833C21.0368 5.65833 21.2644 5.74311 21.4533 5.91267C21.6469 6.10614 21.7438 6.3349 21.7438 6.59896C21.7438 6.86301 21.6469 7.08944 21.4533 7.27825L17.9471 10.7917H22.535C22.7917 10.7917 23.0144 10.8862 23.2033 11.0752C23.3923 11.264 23.4868 11.4867 23.4868 11.7434C23.4868 12.0148 23.3923 12.2413 23.2033 12.4227C23.0144 12.6043 22.7917 12.6951 22.535 12.6951H17.9471L21.5116 16.3252C21.7053 16.4945 21.8009 16.7124 21.7986 16.9788C21.7963 17.2452 21.7006 17.4631 21.5116 17.6324C21.3376 17.8409 21.1185 17.9451 20.8545 17.9451C20.5904 17.9451 20.364 17.8506 20.1752 17.6616L15.2445 12.6951H12.6951V15.2084L17.6616 20.2335C17.8506 20.4029 17.9451 20.6207 17.9451 20.8871C17.9451 21.1535 17.8506 21.3714 17.6616 21.5408C17.4876 21.7492 17.2685 21.8546 17.0045 21.8569C16.7404 21.8593 16.514 21.7636 16.3252 21.5699L12.6951 17.918V22.5642C12.6951 22.8209 12.6006 23.0388 12.4116 23.2178C12.2228 23.3971 12 23.4868 11.7434 23.4868C11.4719 23.4868 11.2455 23.3959 11.0641 23.2143C10.8825 23.0329 10.7917 22.8065 10.7917 22.535V17.918Z" fill="#C00003"/>
</svg>
