<svg width="28" height="28" viewBox="0 0 28 28" fill="none" xmlns="http://www.w3.org/2000/svg">
<path d="M10.3687 9.31301H17.6312V6.66818C17.6312 5.64948 17.2797 4.78702 16.5768 4.0808C15.8739 3.37458 15.0166 3.02147 14.0049 3.02147C12.9934 3.02147 12.1345 3.37458 11.4283 4.0808C10.7219 4.78702 10.3687 5.64948 10.3687 6.66818V9.31301ZM6.47931 25.8272C5.93292 25.8272 5.46509 25.6326 5.07581 25.2436C4.68673 24.8543 4.49219 24.3864 4.49219 23.8401V11.3071C4.49219 10.7588 4.68673 10.2894 5.07581 9.89897C5.46509 9.50833 5.93292 9.31301 6.47931 9.31301H8.38156V6.66672C8.38156 5.10397 8.92863 3.77339 10.0228 2.67497C11.1167 1.57655 12.4429 1.02734 14.0014 1.02734C15.5599 1.02734 16.8856 1.57655 17.9786 2.67497C19.0717 3.77339 19.6183 5.10397 19.6183 6.66672V9.31301H21.5206C22.0689 9.31301 22.5383 9.50833 22.9287 9.89897C23.3194 10.2894 23.5147 10.7588 23.5147 11.3071V15.8382C23.5147 16.1596 23.4113 16.4007 23.2046 16.5615C22.9981 16.7223 22.771 16.8027 22.5233 16.8027C22.2754 16.8027 22.0462 16.7211 21.8359 16.5577C21.6257 16.3944 21.5206 16.1448 21.5206 15.809V11.3071H6.47931V23.8401H16.4715C16.805 23.8401 17.0551 23.9426 17.222 24.1478C17.3886 24.3531 17.4719 24.5788 17.4719 24.825C17.4719 25.0772 17.3886 25.3072 17.222 25.5151C17.0551 25.7232 16.805 25.8272 16.4715 25.8272H6.47931ZM22.5245 25.8272C21.7702 25.8272 21.125 25.5579 20.5887 25.0193C20.0526 24.4808 19.7846 23.8402 19.7846 23.0972C19.7846 22.739 19.8453 22.4035 19.9669 22.0906C20.0886 21.7778 20.2607 21.4998 20.4831 21.2568L21.9624 19.5957C22.1166 19.4215 22.305 19.3344 22.5277 19.3344C22.7503 19.3344 22.9389 19.4215 23.0935 19.5957L24.5729 21.2568C24.7902 21.5 24.9611 21.7775 25.0853 22.0892C25.2096 22.4007 25.2717 22.7362 25.2717 23.0957C25.2717 23.8397 25.0063 24.4808 24.4754 25.0193C23.9448 25.5579 23.2945 25.8272 22.5245 25.8272ZM14.0049 19.8194C14.6238 19.8194 15.152 19.6052 15.5895 19.1769C16.027 18.7485 16.2458 18.2335 16.2458 17.6319C16.2458 17.0486 16.0254 16.5187 15.5846 16.0423C15.1438 15.566 14.6139 15.3278 13.995 15.3278C13.3761 15.3278 12.8479 15.566 12.4104 16.0423C11.9729 16.5187 11.7541 17.0535 11.7541 17.6465C11.7541 18.2396 11.9745 18.75 12.4153 19.1778C12.8561 19.6055 13.386 19.8194 14.0049 19.8194Z" fill="#C00003"/>
</svg>
