<svg width="28" height="28" viewBox="0 0 28 28" fill="none" xmlns="http://www.w3.org/2000/svg">
<path d="M2.18825 13.0062C2.43014 9.97387 3.68188 7.40672 5.94346 5.30477C8.20524 3.20283 10.8885 2.15186 13.9932 2.15186C15.6263 2.15186 17.1587 2.46413 18.5904 3.08869C20.0223 3.71305 21.2767 4.5619 22.3535 5.63523C23.4303 6.70856 24.2797 7.96147 24.9015 9.39394C25.5233 10.8262 25.8343 12.3615 25.8343 13.9999C25.8343 15.6222 25.5232 17.1535 24.9012 18.594C24.279 20.0344 23.43 21.2915 22.3544 22.3652C21.2787 23.4388 20.0247 24.2864 18.5925 24.9083C17.16 25.5301 15.6269 25.841 13.9932 25.841C12.8848 25.841 11.8226 25.7024 10.8064 25.4251C9.79025 25.1478 8.83261 24.7393 7.9335 24.1995C7.64825 24.0346 7.4924 23.7903 7.46596 23.4666C7.43951 23.1426 7.54918 22.8581 7.79496 22.6131C7.94682 22.466 8.13738 22.3804 8.36663 22.3565C8.59568 22.3326 8.81171 22.3715 9.01471 22.4734C9.78996 22.9273 10.601 23.2708 11.4478 23.5039C12.2944 23.7372 13.1429 23.8539 13.9932 23.8539C16.7553 23.8539 19.0881 22.9033 20.9917 21.002C22.8953 19.1007 23.8471 16.7667 23.8471 13.9999C23.8471 11.2334 22.8953 8.89937 20.9917 6.9979C19.0881 5.09662 16.7553 4.14598 13.9932 4.14598C11.3859 4.14598 9.15938 4.98899 7.31371 6.67502C5.46804 8.36105 4.4266 10.4715 4.18938 13.0062C4.1606 13.2963 4.04967 13.5344 3.85658 13.7205C3.66331 13.9068 3.42346 13.9999 3.13704 13.9999C2.85063 13.9999 2.61486 13.9008 2.42975 13.7024C2.24464 13.5043 2.16414 13.2722 2.18825 13.0062ZM19.1023 12.5854V15.4696C19.1023 15.7316 19.1892 15.9488 19.363 16.1212C19.5367 16.2935 19.7554 16.3796 20.0193 16.3796C20.2812 16.3796 20.4983 16.2928 20.6706 16.1192C20.8431 15.9455 20.9293 15.7267 20.9293 15.4626V10.588C20.9293 10.3028 20.835 10.0658 20.6464 9.87723C20.4578 9.68881 20.2208 9.59461 19.9356 9.59461H15.054C14.792 9.59461 14.5749 9.68074 14.4027 9.85302C14.2302 10.0253 14.144 10.2425 14.144 10.5046C14.144 10.7665 14.2309 10.9848 14.4047 11.1594C14.5783 11.334 14.7971 11.4213 15.061 11.4213H17.9383L12.6121 16.7404L9.60417 14.1046C9.40603 13.9304 9.17551 13.8531 8.91263 13.8728C8.64974 13.8924 8.42817 13.9915 8.24792 14.17L3.77608 18.6418C3.63531 18.7826 3.54917 18.9451 3.51767 19.1295C3.48617 19.3138 3.52282 19.4885 3.62763 19.6536C3.77015 19.8764 3.97792 20.0024 4.25092 20.0316C4.52411 20.0608 4.75385 19.9833 4.94013 19.7991L8.96629 15.7797L11.9743 18.4155C12.1726 18.5944 12.4032 18.674 12.6661 18.6544C12.929 18.6347 13.1504 18.5356 13.3305 18.3571L19.1023 12.5854Z" fill="#C00003"/>
</svg>
