<svg width="297" height="163" viewBox="0 0 297 163" fill="none" xmlns="http://www.w3.org/2000/svg">
<g clip-path="url(#clip0_10563_68288)">
<g filter="url(#filter0_n_10563_68288)">
<path fill-rule="evenodd" clip-rule="evenodd" d="M226.461 69.282C232.335 65.8904 236.229 59.6829 236.752 51.4634C237.797 35.0244 224.959 16.7626 208.077 10.6745C199.636 7.63049 191.782 8.20626 185.908 11.5979L62.5148 82.8464C56.6407 86.238 52.7463 92.4455 52.2237 100.665C51.1787 117.104 64.0171 135.366 80.899 141.454C89.34 144.498 97.1936 143.922 103.068 140.531L226.461 69.282Z" fill="white"/>
</g>
<path d="M81.596 140.774C65.2957 134.583 52.645 116.589 53.3405 100.584C54.0362 84.5785 67.8149 76.6228 84.1153 82.8145C100.416 89.0063 113.066 107.001 112.37 123.006C111.674 139.011 97.8961 146.966 81.596 140.774Z" fill="#E4E4E4" stroke="#BEBEBE"/>
<path d="M68.2881 138.02C58.3167 134.232 50.5779 123.225 51.0035 113.434C51.4292 103.643 59.858 98.7765 69.8292 102.564C79.8006 106.352 87.5393 117.359 87.1138 127.15C86.6882 136.941 78.2595 141.808 68.2881 138.02Z" fill="#6F707D" stroke="#A3A3A3" stroke-width="3"/>
<path fill-rule="evenodd" clip-rule="evenodd" d="M100.908 139.344C106.239 136.266 108.968 131.009 109.353 123.424C110.125 108.253 98.1863 91.2716 82.6885 85.4945C74.9395 82.606 68.1188 82.0432 62.788 85.1212L51.6613 91.5457C46.3304 94.6237 43.2503 100.903 42.8647 108.489C42.0934 123.659 54.0317 140.641 69.5296 146.418C77.2786 149.306 84.4502 148.847 89.781 145.769L100.908 139.344Z" fill="#6F707D"/>
<path d="M69.4819 145.279C54.6225 139.634 43.0906 123.231 43.7248 108.641C44.3591 94.0504 56.9192 86.7983 71.7785 92.4426C86.6379 98.0869 98.1698 114.49 97.5357 129.081C96.9015 143.671 84.3414 150.923 69.4819 145.279Z" fill="#DCDCDC" stroke="#A7A7A7" stroke-width="2"/>
<path fill-rule="evenodd" clip-rule="evenodd" d="M81.2507 139.129C85.0433 136.939 87.5346 132.898 87.8255 127.525C88.4073 116.779 79.9675 104.774 68.9747 100.711C63.4782 98.6797 58.3843 99.0184 54.5917 101.208L45.3155 106.776C41.5229 108.966 39.0317 113.007 38.7408 118.38C38.159 129.126 46.5988 141.131 57.5916 145.194C63.0881 147.225 68.182 146.887 71.9746 144.697L81.2507 139.129Z" fill="#6F707D"/>
<path d="M57.1784 144.168C46.9383 140.279 38.9908 128.974 39.4279 118.919C39.865 108.865 48.521 103.867 58.7612 107.756C69.0014 111.646 76.9486 122.951 76.5117 133.006C76.0747 143.06 67.4187 148.058 57.1784 144.168Z" fill="#525252" stroke="#A3A3A3" stroke-width="2"/>
</g>
<defs>
<filter id="filter0_n_10563_68288" x="52.1641" y="8.69026" width="184.647" height="134.748" filterUnits="userSpaceOnUse" color-interpolation-filters="sRGB">
<feFlood flood-opacity="0" result="BackgroundImageFix"/>
<feBlend mode="normal" in="SourceGraphic" in2="BackgroundImageFix" result="shape"/>
<feTurbulence type="fractalNoise" baseFrequency="2 2" stitchTiles="stitch" numOctaves="3" result="noise" seed="8256" />
<feColorMatrix in="noise" type="luminanceToAlpha" result="alphaNoise" />
<feComponentTransfer in="alphaNoise" result="coloredNoise1">
<feFuncA type="discrete" tableValues="1 1 1 1 1 1 1 1 1 1 1 1 1 1 1 1 1 1 1 1 1 1 1 1 1 1 1 1 1 1 1 1 1 1 1 1 1 1 1 1 1 1 1 1 1 1 1 1 1 1 1 0 0 0 0 0 0 0 0 0 0 0 0 0 0 0 0 0 0 0 0 0 0 0 0 0 0 0 0 0 0 0 0 0 0 0 0 0 0 0 0 0 0 0 0 0 0 0 0 0 "/>
</feComponentTransfer>
<feComposite operator="in" in2="shape" in="coloredNoise1" result="noise1Clipped" />
<feFlood flood-color="rgba(0, 0, 0, 0.35)" result="color1Flood" />
<feComposite operator="in" in2="noise1Clipped" in="color1Flood" result="color1" />
<feMerge result="effect1_noise_10563_68288">
<feMergeNode in="shape" />
<feMergeNode in="color1" />
</feMerge>
</filter>
<clipPath id="clip0_10563_68288">
<rect width="296.5" height="162.51" rx="8" fill="white"/>
</clipPath>
</defs>
</svg>
