<svg width="32" height="20" viewBox="0 0 32 20" fill="none" xmlns="http://www.w3.org/2000/svg">
<g clip-path="url(#clip0_10563_68894)">
<path d="M32 0H0V20H32V0Z" fill="#FF9933"/>
<path d="M32 6.66602H0V13.3323H32V6.66602Z" fill="white"/>
<path d="M32 13.334H0V20.0003H32V13.334Z" fill="#128807"/>
<path d="M16.0001 12.8061C17.5712 12.8061 18.8449 11.5492 18.8449 9.99877C18.8449 8.44831 17.5712 7.19141 16.0001 7.19141C14.4289 7.19141 13.1553 8.44831 13.1553 9.99877C13.1553 11.5492 14.4289 12.8061 16.0001 12.8061Z" fill="#000088"/>
<path d="M15.9993 12.4545C17.3737 12.4545 18.4878 11.3551 18.4878 9.99876C18.4878 8.64246 17.3737 7.54297 15.9993 7.54297C14.6249 7.54297 13.5107 8.64246 13.5107 9.99876C13.5107 11.3551 14.6249 12.4545 15.9993 12.4545Z" fill="white"/>
<path d="M16.0001 10.491C16.2752 10.491 16.4982 10.2709 16.4982 9.99939C16.4982 9.7279 16.2752 9.50781 16.0001 9.50781C15.725 9.50781 15.502 9.7279 15.502 9.99939C15.502 10.2709 15.725 10.491 16.0001 10.491Z" fill="#000088"/>
<path d="M18.5929 10.3378C18.6019 10.2703 18.5537 10.2085 18.4854 10.1996C18.4171 10.1907 18.3544 10.2382 18.3454 10.3056C18.3364 10.3731 18.3845 10.4349 18.4528 10.4438C18.5212 10.4527 18.5839 10.4052 18.5929 10.3378Z" fill="#000088"/>
<path d="M15.9994 12.457L16.0847 10.9834L15.9994 10.2812L15.9141 10.9834L15.9994 12.457Z" fill="#000088"/>
<path d="M18.4151 10.9863C18.4415 10.9235 18.4112 10.8515 18.3475 10.8254C18.2839 10.7994 18.2109 10.8292 18.1845 10.8921C18.1581 10.9549 18.1883 11.027 18.252 11.053C18.3157 11.079 18.3887 11.0492 18.4151 10.9863Z" fill="#000088"/>
<path d="M15.3604 12.3736L15.8297 10.9715L15.9364 10.2715L15.6697 10.9273L15.3604 12.3736Z" fill="#000088"/>
<path d="M18.0738 11.5698C18.1158 11.5159 18.1054 11.4385 18.0508 11.3971C17.9961 11.3557 17.9177 11.3659 17.8758 11.4199C17.8338 11.4738 17.8441 11.5511 17.8988 11.5926C17.9535 11.634 18.0318 11.6238 18.0738 11.5698Z" fill="#000088"/>
<path d="M14.7549 12.1264L15.573 10.8917L15.8546 10.2422L15.4279 10.8075L14.7549 12.1264Z" fill="#000088"/>
<path d="M17.5908 12.0462C17.6455 12.0048 17.6558 11.9275 17.6138 11.8735C17.5719 11.8196 17.4935 11.8094 17.4389 11.8508C17.3842 11.8922 17.3739 11.9695 17.4158 12.0235C17.4578 12.0775 17.5361 12.0876 17.5908 12.0462Z" fill="#000088"/>
<path d="M14.2402 11.7371L15.3602 10.755L15.8029 10.1992L15.2354 10.6319L14.2402 11.7371Z" fill="#000088"/>
<path d="M16.9999 12.3836C17.0636 12.3575 17.0938 12.2855 17.0674 12.2226C17.041 12.1598 16.968 12.13 16.9044 12.156C16.8407 12.182 16.8104 12.2541 16.8368 12.3169C16.8632 12.3797 16.9362 12.4096 16.9999 12.3836Z" fill="#000088"/>
<path d="M13.8447 11.2298L15.1802 10.5656L15.753 10.1445L15.0959 10.4224L13.8447 11.2298Z" fill="#000088"/>
<path d="M16.3419 12.556C16.4102 12.5471 16.4583 12.4853 16.4493 12.4178C16.4403 12.3504 16.3776 12.3029 16.3093 12.3118C16.2409 12.3207 16.1928 12.3825 16.2018 12.45C16.2108 12.5174 16.2735 12.5649 16.3419 12.556Z" fill="#000088"/>
<path d="M13.5957 10.6315L15.0602 10.3315L15.7248 10.0684L15.0154 10.1736L13.5957 10.6315Z" fill="#000088"/>
<path d="M15.7979 12.453C15.8069 12.3856 15.7588 12.3237 15.6905 12.3148C15.6222 12.306 15.5595 12.3534 15.5505 12.4209C15.5415 12.4883 15.5896 12.5502 15.6579 12.559C15.7262 12.5679 15.7889 12.5205 15.7979 12.453Z" fill="#000088"/>
<path d="M13.5107 9.99998L15.0041 10.0842L15.7155 9.99998L15.0041 9.91577L13.5107 9.99998Z" fill="#000088"/>
<path d="M15.1631 12.3164C15.1895 12.2536 15.1593 12.1815 15.0956 12.1555C15.0319 12.1295 14.9589 12.1593 14.9325 12.2222C14.9061 12.285 14.9364 12.357 15.0001 12.3831C15.0637 12.4091 15.1367 12.3793 15.1631 12.3164Z" fill="#000088"/>
<path d="M13.5957 9.36719L15.0165 9.83035L15.7258 9.93561L15.0613 9.67245L13.5957 9.36719Z" fill="#000088"/>
<path d="M14.5836 12.0229C14.6255 11.969 14.6152 11.8917 14.5605 11.8503C14.5058 11.8089 14.4275 11.819 14.3855 11.873C14.3436 11.927 14.3539 12.0043 14.4086 12.0457C14.4633 12.0871 14.5416 12.0769 14.5836 12.0229Z" fill="#000088"/>
<path d="M13.8447 8.77148L15.0959 9.57885L15.7541 9.85675L15.1813 9.43569L13.8447 8.77148Z" fill="#000088"/>
<path d="M14.1006 11.5931C14.1552 11.5517 14.1656 11.4744 14.1236 11.4204C14.0816 11.3665 14.0033 11.3563 13.9486 11.3977C13.8939 11.4391 13.8836 11.5164 13.9256 11.5704C13.9675 11.6243 14.0459 11.6345 14.1006 11.5931Z" fill="#000088"/>
<path d="M14.2402 8.26172L15.2354 9.36698L15.7986 9.80382L15.3602 9.24382L14.2402 8.26172Z" fill="#000088"/>
<path d="M13.7489 11.0535C13.8126 11.0275 13.8428 10.9554 13.8164 10.8926C13.7901 10.8297 13.7171 10.7999 13.6534 10.8259C13.5897 10.8519 13.5595 10.924 13.5858 10.9868C13.6122 11.0497 13.6852 11.0795 13.7489 11.0535Z" fill="#000088"/>
<path d="M14.7549 7.87305L15.4279 9.19094L15.8546 9.7562L15.573 9.10778L14.7549 7.87305Z" fill="#000088"/>
<path d="M13.5499 10.443C13.6182 10.4341 13.6663 10.3722 13.6573 10.3048C13.6483 10.2374 13.5856 10.1899 13.5173 10.1988C13.449 10.2076 13.4008 10.2695 13.4098 10.3369C13.4188 10.4044 13.4815 10.4519 13.5499 10.443Z" fill="#000088"/>
<path d="M15.3604 7.62695L15.6644 9.07222L15.931 9.72801L15.8244 9.02801L15.3604 7.62695Z" fill="#000088"/>
<path d="M13.6344 9.71088C13.6434 9.64354 13.5953 9.58178 13.5271 9.57294C13.4589 9.5641 13.3963 9.61152 13.3873 9.67885C13.3784 9.74619 13.4264 9.80795 13.4946 9.81679C13.5629 9.82563 13.6255 9.77821 13.6344 9.71088Z" fill="#000088"/>
<path d="M15.9994 7.54297L15.9141 9.01665L15.9994 9.71876L16.0847 9.01665L15.9994 7.54297Z" fill="#000088"/>
<path d="M13.8164 9.10938C13.8428 9.04654 13.8126 8.9745 13.7489 8.94847C13.6852 8.92244 13.6122 8.95228 13.5858 9.01512C13.5595 9.07796 13.5897 9.15001 13.6534 9.17604C13.7171 9.20207 13.7901 9.17222 13.8164 9.10938Z" fill="#000088"/>
<path d="M16.6395 7.62695L16.1701 9.02906L16.0635 9.72906L16.3301 9.07327L16.6395 7.62695Z" fill="#000088"/>
<path d="M14.1256 8.57958C14.1675 8.52562 14.1572 8.44831 14.1025 8.4069C14.0478 8.3655 13.9695 8.37567 13.9275 8.42964C13.8856 8.4836 13.8959 8.56091 13.9506 8.60232C14.0053 8.64372 14.0836 8.63355 14.1256 8.57958Z" fill="#000088"/>
<path d="M17.2452 7.87305L16.4271 9.10778L16.1455 9.75726L16.5722 9.19199L17.2452 7.87305Z" fill="#000088"/>
<path d="M14.5615 8.14779C14.6162 8.10638 14.6265 8.02907 14.5845 7.9751C14.5426 7.92114 14.4642 7.91096 14.4096 7.95237C14.3549 7.99378 14.3446 8.07109 14.3865 8.12505C14.4285 8.17901 14.5068 8.18919 14.5615 8.14779Z" fill="#000088"/>
<path d="M17.7599 8.26172L16.6399 9.24382L16.1973 9.79961L16.7647 9.36698L17.7599 8.26172Z" fill="#000088"/>
<path d="M15.0946 7.8445C15.1583 7.81847 15.1885 7.74643 15.1621 7.68358C15.1358 7.62074 15.0628 7.5909 14.9991 7.61693C14.9354 7.64296 14.9052 7.71501 14.9315 7.77785C14.9579 7.84069 15.0309 7.87053 15.0946 7.8445Z" fill="#000088"/>
<path d="M18.1563 8.77148L16.8208 9.43569L16.248 9.85675L16.9051 9.57885L18.1563 8.77148Z" fill="#000088"/>
<path d="M15.6905 7.68907C15.7588 7.68019 15.8069 7.61833 15.7979 7.55089C15.7889 7.48346 15.7262 7.43598 15.6579 7.44486C15.5896 7.45374 15.5415 7.51561 15.5505 7.58304C15.5595 7.65048 15.6222 7.69795 15.6905 7.68907Z" fill="#000088"/>
<path d="M18.4045 9.36719L16.9399 9.66719L16.2754 9.93035L16.9847 9.82508L18.4045 9.36719Z" fill="#000088"/>
<path d="M16.4483 7.57997C16.4573 7.51253 16.4092 7.45067 16.3409 7.44179C16.2725 7.43291 16.2099 7.48038 16.2009 7.54782C16.1919 7.61525 16.24 7.67712 16.3083 7.686C16.3766 7.69488 16.4393 7.6474 16.4483 7.57997Z" fill="#000088"/>
<path d="M18.488 9.99998L16.9947 9.91577L16.2832 9.99998L16.9947 10.0842L18.488 9.99998Z" fill="#000088"/>
<path d="M17.0664 7.77735C17.0928 7.71451 17.0626 7.64247 16.9989 7.61644C16.9352 7.59041 16.8622 7.62025 16.8358 7.68309C16.8095 7.74593 16.8397 7.81798 16.9034 7.84401C16.9671 7.87004 17.0401 7.84019 17.0664 7.77735Z" fill="#000088"/>
<path d="M18.4045 10.6309L16.9837 10.1678L16.2744 10.0625L16.9389 10.3257L18.4045 10.6309Z" fill="#000088"/>
<path d="M17.6138 8.12646C17.6558 8.0725 17.6455 7.99518 17.5908 7.95378C17.5361 7.91237 17.4578 7.92255 17.4158 7.97651C17.3739 8.03047 17.3842 8.10779 17.4389 8.14919C17.4935 8.1906 17.5719 8.18042 17.6138 8.12646Z" fill="#000088"/>
<path d="M18.1554 11.2298L16.9042 10.4224L16.2461 10.1445L16.8189 10.5656L18.1554 11.2298Z" fill="#000088"/>
<path d="M18.0517 8.60482C18.1064 8.56341 18.1167 8.4861 18.0748 8.43214C18.0328 8.37817 17.9545 8.36799 17.8998 8.4094C17.8451 8.45081 17.8348 8.52812 17.8768 8.58208C17.9187 8.63605 17.9971 8.64622 18.0517 8.60482Z" fill="#000088"/>
<path d="M17.7596 11.7374L16.7644 10.6322L16.2012 10.1953L16.6438 10.7511L17.7596 11.7374Z" fill="#000088"/>
<path d="M18.3466 9.17262C18.4102 9.14659 18.4405 9.07455 18.4141 9.01171C18.3877 8.94887 18.3147 8.91903 18.251 8.94506C18.1874 8.97109 18.1571 9.04313 18.1835 9.10597C18.2099 9.16881 18.2829 9.19865 18.3466 9.17262Z" fill="#000088"/>
<path d="M17.2452 12.1273L16.5722 10.8094L16.1455 10.2441L16.4271 10.8936L17.2452 12.1273Z" fill="#000088"/>
<path d="M18.4835 9.80064C18.5518 9.79177 18.5999 9.7299 18.5909 9.66246C18.5819 9.59503 18.5192 9.54756 18.4509 9.55643C18.3825 9.56531 18.3344 9.62718 18.3434 9.69461C18.3524 9.76205 18.4151 9.80952 18.4835 9.80064Z" fill="#000088"/>
<path d="M16.64 12.3725L16.336 10.9273L16.0693 10.2715L16.176 10.9715L16.64 12.3725Z" fill="#000088"/>
</g>
<defs>
<clipPath id="clip0_10563_68894">
<rect width="32" height="20.0003" fill="white"/>
</clipPath>
</defs>
</svg>
