<svg width="32" height="20" viewBox="0 0 32 20" fill="none" xmlns="http://www.w3.org/2000/svg">
<g clip-path="url(#clip0_10563_68899)">
<path d="M32 0H0V20H32V0Z" fill="#00AFCA"/>
<path d="M17.7642 6.36964C17.7871 6.37645 17.8113 6.37815 17.8349 6.37462C17.8585 6.37108 17.8811 6.36239 17.9009 6.34919C17.9207 6.33599 17.9373 6.3186 17.9494 6.29828C17.9616 6.27797 17.969 6.25524 17.9712 6.23174C17.9766 5.98228 17.967 5.73271 17.9424 5.48438C17.822 5.70454 17.7152 5.93161 17.6224 6.16437C17.6152 6.18719 17.6134 6.21129 17.617 6.23489C17.6207 6.25849 17.6296 6.28098 17.6432 6.3007C17.6569 6.32042 17.6748 6.33685 17.6958 6.34879C17.7167 6.36072 17.7401 6.36785 17.7642 6.36964Z" fill="#FEC50C"/>
<path d="M18.2234 6.50646C18.2445 6.51758 18.2679 6.5239 18.2918 6.52498C18.3158 6.52605 18.3396 6.52185 18.3617 6.51268C18.3838 6.5035 18.4035 6.48958 18.4194 6.47194C18.4354 6.45429 18.4471 6.43336 18.4538 6.41067C18.5084 6.16761 18.5483 5.92156 18.5733 5.67383C18.4148 5.86648 18.2681 6.06824 18.1338 6.27804C18.1222 6.29845 18.1154 6.32114 18.1137 6.34448C18.112 6.36782 18.1156 6.39123 18.1241 6.41305C18.1327 6.43487 18.146 6.45456 18.1632 6.4707C18.1804 6.48685 18.2009 6.49906 18.2234 6.50646Z" fill="#FEC50C"/>
<path d="M18.6462 6.73099C18.6647 6.74605 18.6864 6.75683 18.7097 6.76254C18.733 6.76826 18.7573 6.76876 18.7808 6.76402C18.8043 6.75928 18.8264 6.74941 18.8456 6.73513C18.8648 6.72086 18.8804 6.70254 18.8915 6.68152C18.9933 6.45321 19.0813 6.21911 19.155 5.98047C18.9596 6.13888 18.7741 6.30865 18.5992 6.48889C18.5838 6.50697 18.5727 6.5282 18.5667 6.55104C18.5607 6.57389 18.5599 6.59777 18.5644 6.62095C18.5689 6.64413 18.5786 6.66604 18.5927 6.68507C18.6068 6.70411 18.6251 6.71979 18.6462 6.73099Z" fill="#FEC50C"/>
<path d="M19.017 7.03137C19.0322 7.04964 19.0512 7.06437 19.0728 7.07448C19.0944 7.08459 19.118 7.08984 19.1418 7.08984C19.1657 7.08984 19.1893 7.08459 19.2109 7.07448C19.2325 7.06437 19.2515 7.04964 19.2666 7.03137C19.4116 6.82707 19.5441 6.61441 19.6634 6.39453C19.4406 6.51228 19.2251 6.64304 19.0181 6.78611C18.9997 6.80094 18.9849 6.81961 18.9747 6.84077C18.9644 6.86193 18.9591 6.88505 18.959 6.90849C18.9589 6.93193 18.964 6.95511 18.9741 6.97635C18.9841 6.99759 18.9988 7.01638 19.017 7.03137Z" fill="#FEC50C"/>
<path d="M19.3205 7.39583C19.3317 7.41669 19.3475 7.43481 19.3668 7.44887C19.386 7.46293 19.4082 7.47258 19.4317 7.47712C19.4552 7.48166 19.4794 7.48097 19.5026 7.4751C19.5258 7.46923 19.5474 7.45833 19.5658 7.4432C19.7484 7.27066 19.9205 7.08753 20.081 6.89478C19.8391 6.96845 19.6019 7.05632 19.3706 7.15793C19.35 7.16894 19.332 7.18426 19.318 7.20282C19.304 7.22138 19.2943 7.24273 19.2895 7.26538C19.2847 7.28804 19.285 7.31145 19.2904 7.33398C19.2957 7.35651 19.306 7.37762 19.3205 7.39583Z" fill="#FEC50C"/>
<path d="M19.5471 7.81401C19.554 7.83667 19.566 7.85751 19.5821 7.87503C19.5982 7.89255 19.6181 7.9063 19.6402 7.91527C19.6624 7.92425 19.6863 7.92823 19.7103 7.92692C19.7342 7.92561 19.7575 7.91904 19.7786 7.9077C19.9917 7.77354 20.1965 7.62696 20.3919 7.46875C20.1409 7.49338 19.8915 7.53275 19.6452 7.58665C19.6222 7.59314 19.6008 7.60464 19.5828 7.62031C19.5648 7.63598 19.5506 7.65543 19.5412 7.67722C19.5318 7.69902 19.5274 7.72261 19.5285 7.74628C19.5295 7.76995 19.5359 7.79309 19.5471 7.81401Z" fill="#FEC50C"/>
<path d="M19.6858 8.26628C19.688 8.29033 19.6957 8.31357 19.7084 8.33423C19.7211 8.35489 19.7383 8.37243 19.7589 8.38552C19.7795 8.39861 19.8028 8.40691 19.8271 8.40977C19.8514 8.41264 19.876 8.41001 19.8991 8.40207C20.135 8.31046 20.3651 8.20501 20.5882 8.08628C20.3366 8.06196 20.0837 8.05247 19.8309 8.05786C19.8061 8.05907 19.7819 8.0659 19.7603 8.07783C19.7386 8.08976 19.7201 8.10645 19.706 8.12662C19.692 8.1468 19.6829 8.16989 19.6794 8.19412C19.6758 8.21834 19.6781 8.24304 19.6858 8.26628Z" fill="#FEC50C"/>
<path d="M19.7332 8.7368C19.7309 8.76028 19.7338 8.78397 19.7419 8.80617C19.75 8.82837 19.763 8.84851 19.7799 8.86514C19.7969 8.88177 19.8174 8.89446 19.8399 8.90231C19.8625 8.91015 19.8865 8.91295 19.9103 8.91049C20.1592 8.86711 20.4054 8.80912 20.6473 8.7368C20.4054 8.66449 20.1592 8.6065 19.9103 8.56312C19.8865 8.56066 19.8625 8.56346 19.8399 8.5713C19.8174 8.57915 19.7969 8.59184 19.7799 8.60847C19.763 8.6251 19.75 8.64524 19.7419 8.66744C19.7338 8.68964 19.7309 8.71333 19.7332 8.7368Z" fill="#FEC50C"/>
<path d="M19.6856 9.20734C19.6787 9.22992 19.6769 9.25374 19.6805 9.27707C19.6841 9.3004 19.6929 9.32264 19.7063 9.34219C19.7197 9.36174 19.7373 9.37811 19.7579 9.39011C19.7785 9.4021 19.8015 9.40943 19.8253 9.41155C20.0781 9.41694 20.331 9.40745 20.5826 9.38313C20.3595 9.2644 20.1294 9.15895 19.8936 9.06734C19.8705 9.06031 19.846 9.05852 19.8221 9.06209C19.7982 9.06565 19.7754 9.07449 19.7554 9.08794C19.7355 9.10139 19.7188 9.1191 19.7067 9.13977C19.6946 9.16044 19.6874 9.18354 19.6856 9.20734Z" fill="#FEC50C"/>
<path d="M19.5463 9.65953C19.535 9.68039 19.5286 9.70346 19.5275 9.72707C19.5264 9.75068 19.5307 9.77423 19.54 9.79601C19.5493 9.81779 19.5634 9.83725 19.5813 9.85298C19.5991 9.8687 19.6204 9.88029 19.6433 9.8869C19.8896 9.94079 20.139 9.98016 20.39 10.0048C20.1946 9.84658 19.9898 9.70001 19.7767 9.56585C19.7557 9.5547 19.7324 9.54829 19.7086 9.54708C19.6848 9.54588 19.661 9.5499 19.639 9.55886C19.617 9.56782 19.5972 9.5815 19.5812 9.59891C19.5651 9.61632 19.5532 9.63703 19.5463 9.65953Z" fill="#FEC50C"/>
<path d="M19.3209 10.0779C19.3056 10.0962 19.2947 10.1176 19.2889 10.1406C19.2831 10.1636 19.2826 10.1876 19.2874 10.2108C19.2922 10.234 19.3022 10.2558 19.3167 10.2747C19.3312 10.2936 19.3497 10.3091 19.371 10.32C19.6024 10.4206 19.8396 10.5074 20.0814 10.58C19.9209 10.3873 19.7489 10.2041 19.5662 10.0316C19.5479 10.0164 19.5264 10.0055 19.5033 9.99951C19.4801 9.99356 19.4559 9.99278 19.4324 9.99722C19.4089 10.0017 19.3867 10.0112 19.3674 10.0252C19.3482 10.0391 19.3323 10.0571 19.3209 10.0779Z" fill="#FEC50C"/>
<path d="M19.0173 10.444C18.9987 10.4589 18.9838 10.4777 18.9736 10.499C18.9633 10.5203 18.958 10.5436 18.958 10.5672C18.958 10.5908 18.9633 10.614 18.9736 10.6353C18.9838 10.6566 18.9987 10.6754 19.0173 10.6903C19.2243 10.8334 19.4398 10.9642 19.6626 11.0819C19.5433 10.862 19.4108 10.6494 19.2658 10.4451C19.2508 10.4269 19.2318 10.4123 19.2104 10.4022C19.189 10.3921 19.1655 10.3868 19.1418 10.3867C19.118 10.3866 19.0945 10.3917 19.073 10.4016C19.0515 10.4115 19.0324 10.426 19.0173 10.444Z" fill="#FEC50C"/>
<path d="M18.6469 10.7427C18.6258 10.7538 18.6074 10.7694 18.5931 10.7884C18.5789 10.8074 18.5691 10.8293 18.5645 10.8525C18.5599 10.8756 18.5606 10.8996 18.5666 10.9224C18.5725 10.9453 18.5836 10.9666 18.5989 10.9848C18.7737 11.165 18.9593 11.3348 19.1546 11.4932C19.081 11.2546 18.993 11.0205 18.8912 10.7921C18.8801 10.7713 18.8644 10.7531 18.8454 10.739C18.8263 10.7248 18.8043 10.715 18.7809 10.7103C18.7575 10.7055 18.7334 10.706 18.7102 10.7116C18.687 10.7172 18.6654 10.7278 18.6469 10.7427Z" fill="#FEC50C"/>
<path d="M18.2221 10.9678C18.1991 10.9746 18.178 10.9864 18.1602 11.0023C18.1425 11.0182 18.1286 11.0378 18.1195 11.0597C18.1104 11.0815 18.1063 11.1052 18.1077 11.1288C18.109 11.1524 18.1157 11.1754 18.1271 11.1962C18.2631 11.4065 18.4116 11.6086 18.5719 11.8014C18.547 11.5537 18.5071 11.3077 18.4525 11.0646C18.4459 11.0418 18.4342 11.0208 18.4184 11.003C18.4025 10.9853 18.3828 10.9712 18.3607 10.9619C18.3386 10.9526 18.3147 10.9484 18.2907 10.9494C18.2667 10.9504 18.2433 10.9567 18.2221 10.9678Z" fill="#FEC50C"/>
<path d="M15.9277 10.7433C15.9092 10.7282 15.8875 10.7174 15.8642 10.7117C15.8409 10.706 15.8166 10.7055 15.7931 10.7102C15.7696 10.715 15.7475 10.7249 15.7283 10.7391C15.7091 10.7534 15.6935 10.7717 15.6824 10.7927C15.5806 11.0211 15.4926 11.2552 15.4189 11.4938C15.6143 11.3354 15.7998 11.1656 15.9747 10.9854C15.9901 10.9673 16.0012 10.9461 16.0072 10.9232C16.0132 10.9004 16.014 10.8765 16.0095 10.8533C16.005 10.8301 15.9953 10.8082 15.9812 10.7892C15.9671 10.7702 15.9488 10.7545 15.9277 10.7433Z" fill="#FEC50C"/>
<path d="M15.5585 10.4432C15.5434 10.425 15.5244 10.4102 15.5028 10.4001C15.4812 10.39 15.4576 10.3848 15.4337 10.3848C15.4098 10.3848 15.3862 10.39 15.3646 10.4001C15.343 10.4102 15.324 10.425 15.3089 10.4432C15.1639 10.6475 15.0314 10.8602 14.9121 11.0801C15.1349 10.9623 15.3504 10.8316 15.5574 10.6885C15.5758 10.6737 15.5907 10.655 15.6009 10.6338C15.6111 10.6127 15.6165 10.5896 15.6166 10.5661C15.6167 10.5427 15.6115 10.5195 15.6015 10.4983C15.5914 10.477 15.5768 10.4582 15.5585 10.4432Z" fill="#FEC50C"/>
<path d="M15.2537 10.0764C15.2424 10.0556 15.2266 10.0375 15.2074 10.0234C15.1881 10.0093 15.166 9.99968 15.1425 9.99515C15.119 9.99061 15.0947 9.9913 15.0715 9.99717C15.0483 10.003 15.0268 10.0139 15.0084 10.0291C14.8257 10.2016 14.6537 10.3847 14.4932 10.5775C14.7354 10.5038 14.973 10.416 15.2046 10.3143C15.2252 10.3032 15.243 10.2878 15.2569 10.2692C15.2708 10.2506 15.2804 10.2293 15.2851 10.2066C15.2898 10.184 15.2894 10.1606 15.284 10.1381C15.2785 10.1156 15.2682 10.0946 15.2537 10.0764Z" fill="#FEC50C"/>
<path d="M15.0281 9.66002C15.0212 9.63737 15.0093 9.61652 14.9932 9.59901C14.9771 9.58149 14.9572 9.56774 14.935 9.55876C14.9128 9.54979 14.8889 9.54581 14.865 9.54712C14.841 9.54843 14.8177 9.555 14.7967 9.56634C14.5846 9.7006 14.3809 9.84718 14.1865 10.0053C14.4376 9.98065 14.6869 9.94129 14.9332 9.88739C14.956 9.88054 14.977 9.86878 14.9946 9.85295C15.0123 9.83713 15.0261 9.81764 15.0352 9.79589C15.0443 9.77414 15.0484 9.75066 15.0471 9.72717C15.0459 9.70367 15.0394 9.68074 15.0281 9.66002Z" fill="#FEC50C"/>
<path d="M14.8897 9.20736C14.8875 9.18331 14.8798 9.16007 14.8671 9.13941C14.8544 9.11875 14.8372 9.10121 14.8166 9.08812C14.796 9.07503 14.7727 9.06674 14.7484 9.06387C14.7241 9.061 14.6995 9.06363 14.6764 9.07157C14.4405 9.16318 14.2104 9.26863 13.9873 9.38736C14.239 9.41168 14.4918 9.42117 14.7446 9.41578C14.7694 9.41457 14.7936 9.40774 14.8152 9.39581C14.8369 9.38389 14.8554 9.36719 14.8695 9.34702C14.8835 9.32685 14.8926 9.30375 14.8961 9.27953C14.8997 9.2553 14.8975 9.2306 14.8897 9.20736Z" fill="#FEC50C"/>
<path d="M14.8429 8.7368C14.8453 8.71333 14.8423 8.68964 14.8342 8.66744C14.8261 8.64524 14.8131 8.6251 14.7962 8.60847C14.7792 8.59184 14.7587 8.57915 14.7362 8.5713C14.7137 8.56346 14.6896 8.56066 14.6659 8.56312C14.4165 8.60645 14.1701 8.66445 13.9277 8.7368C14.1697 8.80912 14.4158 8.86711 14.6648 8.91049C14.6887 8.91312 14.7128 8.91045 14.7355 8.90268C14.7582 8.89491 14.7788 8.88224 14.7959 8.86559C14.8129 8.84894 14.826 8.82874 14.8342 8.80645C14.8423 8.78417 14.8453 8.76038 14.8429 8.7368Z" fill="#FEC50C"/>
<path d="M14.8902 8.26622C14.8971 8.24364 14.8989 8.21982 14.8953 8.19649C14.8917 8.17317 14.8829 8.15092 14.8695 8.13137C14.8561 8.11182 14.8385 8.09545 14.8179 8.08345C14.7973 8.07146 14.7743 8.06413 14.7505 8.06201C14.4977 8.05662 14.2448 8.06611 13.9932 8.09044C14.2163 8.20916 14.4464 8.31461 14.6822 8.40622C14.7053 8.41325 14.7298 8.41504 14.7537 8.41147C14.7776 8.40791 14.8004 8.39907 14.8204 8.38562C14.8404 8.37218 14.857 8.35446 14.8691 8.33379C14.8812 8.31312 14.8884 8.29003 14.8902 8.26622Z" fill="#FEC50C"/>
<path d="M15.0283 7.81401C15.0396 7.79316 15.046 7.77008 15.0471 7.74648C15.0482 7.72287 15.0439 7.69931 15.0346 7.67753C15.0253 7.65575 15.0112 7.63629 14.9933 7.62057C14.9754 7.60485 14.9542 7.59326 14.9312 7.58665C14.6849 7.53275 14.4356 7.49338 14.1846 7.46875C14.38 7.62696 14.5848 7.77354 14.7979 7.9077C14.8189 7.91884 14.8421 7.92525 14.8659 7.92646C14.8898 7.92767 14.9135 7.92365 14.9356 7.91468C14.9576 7.90572 14.9774 7.89204 14.9934 7.87463C15.0094 7.85722 15.0214 7.83652 15.0283 7.81401Z" fill="#FEC50C"/>
<path d="M15.2537 7.39664C15.269 7.37835 15.2799 7.35693 15.2857 7.33395C15.2915 7.31096 15.292 7.28699 15.2872 7.26378C15.2824 7.24057 15.2724 7.21872 15.2579 7.19982C15.2434 7.18092 15.2249 7.16544 15.2036 7.15453C14.9722 7.054 14.735 6.96718 14.4932 6.89453C14.6537 7.08728 14.8257 7.27042 15.0084 7.44295C15.0267 7.45813 15.0482 7.46909 15.0713 7.47503C15.0945 7.48098 15.1187 7.48176 15.1422 7.47733C15.1657 7.47289 15.1879 7.46335 15.2072 7.44939C15.2265 7.43544 15.2423 7.41741 15.2537 7.39664Z" fill="#FEC50C"/>
<path d="M15.5584 7.03047C15.5769 7.01557 15.5919 6.99678 15.6021 6.97548C15.6124 6.95418 15.6177 6.9309 15.6177 6.90732C15.6177 6.88374 15.6124 6.86045 15.6021 6.83915C15.5919 6.81785 15.5769 6.79906 15.5584 6.78416C15.3514 6.64109 15.1359 6.51033 14.9131 6.39258C15.0324 6.61246 15.1649 6.82511 15.3099 7.02942C15.3249 7.04757 15.3438 7.06221 15.3653 7.0723C15.3867 7.08239 15.4101 7.08767 15.4339 7.08777C15.4577 7.08787 15.4811 7.08279 15.5027 7.07288C15.5242 7.06298 15.5432 7.04849 15.5584 7.03047Z" fill="#FEC50C"/>
<path d="M17.2844 10.8656C18.4732 10.8656 19.4369 9.91457 19.4369 8.7414C19.4369 7.56823 18.4732 6.61719 17.2844 6.61719C16.0956 6.61719 15.1318 7.56823 15.1318 8.7414C15.1318 9.91457 16.0956 10.8656 17.2844 10.8656Z" fill="#FEC50C"/>
<path d="M17.2882 6.32422C17.312 6.32654 17.336 6.3236 17.3585 6.31562C17.381 6.30764 17.4014 6.29483 17.4182 6.2781C17.4351 6.26137 17.448 6.24115 17.4559 6.2189C17.4639 6.19666 17.4667 6.17295 17.4642 6.14949C17.4203 5.90379 17.3615 5.6609 17.2882 5.42212C17.2149 5.66091 17.1562 5.90379 17.1122 6.14949C17.1097 6.17295 17.1125 6.19666 17.1205 6.2189C17.1284 6.24115 17.1413 6.26137 17.1582 6.2781C17.175 6.29483 17.1954 6.30764 17.2179 6.31562C17.2404 6.3236 17.2644 6.32654 17.2882 6.32422Z" fill="#FEC50C"/>
<path d="M17.7647 11.1017C17.7403 11.1039 17.7168 11.1115 17.6959 11.124C17.6749 11.1365 17.6571 11.1536 17.6439 11.1739C17.6306 11.1941 17.6222 11.2172 17.6193 11.2411C17.6164 11.2651 17.6191 11.2894 17.6271 11.3122C17.7199 11.545 17.8268 11.7721 17.9471 11.9922C17.9718 11.7439 17.9814 11.4943 17.9759 11.2449C17.9747 11.2204 17.9678 11.1966 17.9557 11.1752C17.9436 11.1539 17.9267 11.1355 17.9062 11.1217C17.8858 11.1078 17.8624 11.0988 17.8378 11.0954C17.8133 11.0919 17.7883 11.0941 17.7647 11.1017Z" fill="#FEC50C"/>
<path d="M17.2882 11.1492C17.2644 11.1469 17.2404 11.1498 17.2179 11.1578C17.1954 11.1658 17.175 11.1786 17.1582 11.1953C17.1413 11.2121 17.1284 11.2323 17.1205 11.2545C17.1125 11.2768 17.1097 11.3005 17.1122 11.3239C17.1562 11.5696 17.2149 11.8125 17.2882 12.0513C17.3615 11.8125 17.4203 11.5696 17.4642 11.3239C17.4667 11.3005 17.4639 11.2768 17.4559 11.2545C17.448 11.2323 17.4351 11.2121 17.4182 11.1953C17.4014 11.1786 17.381 11.1658 17.3585 11.1578C17.336 11.1498 17.312 11.1469 17.2882 11.1492Z" fill="#FEC50C"/>
<path d="M16.81 11.1044C16.7871 11.0976 16.763 11.0959 16.7393 11.0995C16.7157 11.103 16.6932 11.1117 16.6733 11.1249C16.6535 11.1381 16.6369 11.1555 16.6248 11.1758C16.6126 11.1961 16.6052 11.2188 16.6031 11.2423C16.5976 11.4918 16.6072 11.7414 16.6319 11.9897C16.7522 11.7695 16.859 11.5425 16.9519 11.3097C16.959 11.2869 16.9608 11.2628 16.9572 11.2392C16.9536 11.2156 16.9446 11.1931 16.931 11.1734C16.9174 11.1536 16.8994 11.1372 16.8785 11.1253C16.8575 11.1133 16.8341 11.1062 16.81 11.1044Z" fill="#FEC50C"/>
<path d="M16.3518 10.9659C16.3307 10.9548 16.3073 10.9485 16.2834 10.9474C16.2595 10.9464 16.2356 10.9506 16.2135 10.9597C16.1914 10.9689 16.1717 10.9828 16.1558 11.0005C16.1399 11.0181 16.1281 11.039 16.1214 11.0617C16.0668 11.3048 16.0269 11.5508 16.002 11.7986C16.1623 11.6057 16.3108 11.4036 16.4468 11.1933C16.458 11.1726 16.4645 11.1497 16.4658 11.1262C16.467 11.1027 16.4629 11.0792 16.4538 11.0575C16.4448 11.0357 16.4309 11.0162 16.4132 11.0004C16.3956 10.9846 16.3746 10.9728 16.3518 10.9659Z" fill="#FEC50C"/>
<path d="M15.9277 6.73099C15.9488 6.71989 15.9672 6.70427 15.9814 6.68528C15.9957 6.66629 16.0054 6.6444 16.01 6.62121C16.0146 6.59802 16.0139 6.57411 16.008 6.55122C16.002 6.52833 15.991 6.50704 15.9757 6.48889C15.8008 6.30866 15.6152 6.13889 15.4199 5.98047C15.4922 6.21902 15.5787 6.45312 15.6791 6.68152C15.6901 6.70306 15.7059 6.72185 15.7253 6.73648C15.7447 6.75111 15.7672 6.76119 15.7912 6.76595C15.8151 6.77072 15.8399 6.77005 15.8635 6.76399C15.8871 6.75794 15.9091 6.74665 15.9277 6.73099Z" fill="#FEC50C"/>
<path d="M16.352 6.50751C16.375 6.5007 16.3961 6.48891 16.4138 6.47301C16.4316 6.45711 16.4455 6.43751 16.4546 6.41562C16.4637 6.39373 16.4677 6.37012 16.4664 6.3465C16.4651 6.32288 16.4584 6.29985 16.4469 6.27909C16.3103 6.06873 16.1611 5.86662 16 5.67383C16.025 5.92156 16.0649 6.16761 16.1195 6.41067C16.126 6.43375 16.1377 6.45507 16.1537 6.47306C16.1697 6.49104 16.1897 6.50522 16.212 6.51454C16.2344 6.52385 16.2586 6.52805 16.2828 6.52684C16.3071 6.52562 16.3307 6.51901 16.352 6.50751Z" fill="#FEC50C"/>
<path d="M16.8104 6.37099C16.8347 6.36882 16.8583 6.36119 16.8792 6.34869C16.9001 6.33619 16.9179 6.31914 16.9312 6.29885C16.9444 6.27856 16.9529 6.25555 16.9558 6.23157C16.9587 6.20759 16.956 6.18328 16.948 6.16047C16.8551 5.92771 16.7483 5.70063 16.628 5.48047C16.6033 5.7288 16.5937 5.97837 16.5992 6.22784C16.6004 6.25228 16.6073 6.27611 16.6194 6.29748C16.6315 6.31884 16.6484 6.33717 16.6688 6.35102C16.6893 6.36488 16.7127 6.37389 16.7372 6.37735C16.7618 6.38082 16.7868 6.37864 16.8104 6.37099Z" fill="#FEC50C"/>
<path d="M17.2126 12.446L17.1753 12.5197L17.1337 12.6134L17.1091 12.6586L17.0889 12.6997L17.0729 12.7323L17.0526 12.7523L17.0035 12.7112L16.9502 12.6744L16.8926 12.646L16.8307 12.6218L16.7646 12.606L16.6985 12.5902L16.6323 12.5776L16.5619 12.5691L16.4179 12.5565H16.2739L16.1331 12.5481L15.9998 12.526L15.9251 12.5134L15.8547 12.4976L15.8174 12.4849L15.7801 12.4723L15.747 12.4555L15.7182 12.4397L15.6723 12.4113L15.6265 12.3786L15.5774 12.3418L15.5315 12.3007L15.4366 12.2112L15.3417 12.1218L15.2467 12.0365L15.1603 11.9586L15.1187 11.9302L15.0771 11.9018L15.0398 11.886L15.0025 11.8734L14.9321 11.8576L14.8702 11.8376L14.8083 11.8176L14.7465 11.7891L14.6931 11.7649L14.6398 11.7323L14.5907 11.6997L14.5449 11.667L14.4958 11.6302L14.4542 11.5934L14.4126 11.5523L14.371 11.5112L14.2931 11.426L14.2185 11.3365L14.0702 11.1449L13.9145 10.947L13.8238 10.8534L13.7289 10.7597L13.6755 10.7112L13.6222 10.666L13.5646 10.6249L13.5027 10.5797H13.4899L13.4771 10.5923L13.4643 10.6091L13.4558 10.6291L13.443 10.666V10.6818L13.4142 10.6691L13.3897 10.6565L13.3609 10.6439L13.3363 10.6355H13.283L13.2542 10.6439L13.2254 10.6565L13.2542 10.6934L13.2915 10.7418L13.3289 10.7986L13.3619 10.8597L13.395 10.9249L13.4195 10.986L13.4281 11.0186L13.4366 11.0428V11.0712V11.0955H13.2137L13.2467 11.1439L13.2841 11.1923L13.3257 11.2407L13.3715 11.286L13.4174 11.3312L13.4633 11.3765L13.5091 11.4134L13.5507 11.4418H13.5049H13.443L13.3811 11.4502H13.3353L13.3726 11.4828L13.4185 11.5155L13.4675 11.5523L13.5209 11.5891L13.5742 11.6218L13.6275 11.6502L13.6766 11.666L13.7225 11.6786H13.7427H13.7587H13.7715L13.7801 11.687V11.7039V11.7123L13.7715 11.7365V11.7607V11.7776V11.7902V11.8102V11.826L13.7801 11.8344L13.7929 11.8428L13.8089 11.8512H13.8291L13.8494 11.8597L13.8697 11.8681L13.8899 11.8765L13.9059 11.8891V11.8976L13.8899 11.9102L13.8739 11.9228L13.8579 11.9386L13.8419 11.9586V11.9744V11.9902V12.0102V12.0344L13.9123 12.0586L13.987 12.0828L14.0201 12.0912L14.0531 12.1039L14.0777 12.1165L14.0979 12.1291L13.9614 12.2344L13.9987 12.267L14.0446 12.2912L14.1022 12.3197L14.1598 12.3397L14.2259 12.3597L14.2878 12.3723L14.3411 12.3849H14.3902L14.3443 12.4176L14.2867 12.4544L14.2249 12.487L14.179 12.5197L14.2206 12.5481L14.2782 12.5765L14.3443 12.6091L14.4233 12.646L14.6046 12.7239L14.803 12.8018L15.0089 12.8755L15.2115 12.9407L15.3022 12.9691L15.3843 12.9891L15.459 13.0091L15.5251 13.0218L15.3929 13.0091L15.2691 12.9923L15.1465 13.0207L15.0313 12.9965L14.9161 12.9639L14.8094 12.9312L14.7027 12.8944L14.5961 12.8534L14.3934 12.7723L14.2035 12.6912L14.1129 12.6544L14.0222 12.6176L13.9358 12.5849L13.8494 12.5523L13.8697 12.5397L13.8942 12.5312L13.9273 12.5186L13.9646 12.5102L14.0435 12.486L14.1139 12.4618L13.9902 12.4418L13.8206 12.4091L13.7385 12.3849L13.6681 12.3649L13.6393 12.3523L13.6147 12.3397L13.5945 12.327L13.5817 12.3144H13.5945L13.6073 12.306L13.6403 12.2934L13.6862 12.2807L13.7854 12.2523L13.8665 12.2102L13.6638 12.1734L13.507 12.1491L13.4494 12.1365L13.4035 12.1197L13.3875 12.1112L13.3715 12.0986L13.3587 12.0902L13.3502 12.0776L13.363 12.0691L13.4003 12.0607L13.4537 12.0523L13.5155 12.0397L13.5817 12.0312L13.6393 12.0155L13.6681 12.007L13.6926 11.9986L13.7086 11.986L13.7246 11.9734L13.6915 11.9607L13.6585 11.9481L13.6169 11.9397L13.5753 11.9312L13.4803 11.9186L13.3854 11.906L13.3363 11.8934L13.2905 11.8849L13.2446 11.8691L13.1987 11.8523L13.1571 11.8323L13.1198 11.8039L13.0867 11.7755L13.0622 11.7386H13.0707H13.0867H13.107H13.1401H13.2147H13.2969L13.3875 11.747H13.5027H13.5358L13.5603 11.7386L13.5763 11.7302L13.4771 11.6891L13.3449 11.6323L13.2702 11.5955L13.1913 11.5586L13.1123 11.5176L13.0345 11.4765L12.9598 11.4312L12.8894 11.3828L12.8233 11.3344L12.7657 11.286L12.7411 11.2576L12.7166 11.2334L12.7006 11.2091L12.6846 11.1807L12.6686 11.1565L12.6601 11.1281V11.1039V11.0755H12.6931H12.7262L12.7593 11.0881L12.7923 11.1007L12.8585 11.1418L12.9331 11.1828L12.9662 11.2028L13.0035 11.2228L13.0409 11.2386L13.0739 11.2512L13.1113 11.2597H13.1443H13.1817L13.2147 11.247L13.1155 11.1734L13.0089 11.0797L12.8809 10.9744L12.7529 10.8523L12.6249 10.7218L12.5054 10.5912L12.4521 10.5218L12.3987 10.4565L12.3529 10.3912L12.3113 10.3302L12.3027 10.3144V10.286V10.2734V10.2607L12.3155 10.2523L12.3283 10.2397L12.3411 10.2312H12.3571H12.3731H12.4062H12.4265H12.4425L12.4585 10.2439L12.4713 10.2565L12.5459 10.3302L12.6323 10.4155L12.723 10.5091L12.8222 10.6028L12.9214 10.6881L13.0206 10.7691L13.0697 10.8018L13.1155 10.8302L13.1646 10.8544L13.2105 10.8702L13.1774 10.8502L13.1401 10.8134L13.091 10.7649L13.0377 10.7039L12.9182 10.5618L12.7859 10.3944L12.7198 10.3049L12.6579 10.2155L12.6003 10.126L12.5427 10.0407L12.4937 9.95967L12.4521 9.88599L12.4233 9.81651L12.3987 9.75967V9.73967V9.70704V9.69441L12.4073 9.68178L12.4158 9.66914L12.4243 9.66072L12.4371 9.6523L12.4659 9.64388L12.4905 9.63546H12.5481H12.5641H12.5769L12.5929 9.64388L12.6057 9.65651L12.6387 9.68493L12.6718 9.72599L12.7465 9.81967L12.8254 9.93757L12.9161 10.0639L13.011 10.1944L13.0601 10.2555L13.1091 10.3165L13.1625 10.3691L13.2201 10.4176L13.1497 10.2828L13.0707 10.1281L13.0291 10.0428L12.9918 9.95757L12.9545 9.86809L12.9214 9.77862L12.8926 9.68493L12.8638 9.59546L12.8435 9.50599L12.8275 9.41651L12.819 9.33125V9.2502V9.20914V9.1723V9.13546L12.8275 9.09862L12.8361 9.08599V9.07335L12.8489 9.06072L12.8574 9.0523L12.8862 9.03967L12.915 9.03125H12.9438H12.9683H12.9811H12.9897V9.03967V9.0523L13.0313 9.18283L13.0686 9.32178L13.1059 9.46388L13.1433 9.60283L13.1806 9.74178L13.2297 9.8723L13.2542 9.93336L13.283 9.99441L13.3161 10.0512L13.3534 10.1081L13.3289 9.9902L13.3129 9.88493L13.2969 9.78704L13.2883 9.69757L13.2798 9.61967V9.5502V9.49336V9.44493L13.2883 9.40388L13.3011 9.37125L13.3097 9.35862L13.3182 9.34599L13.3267 9.33757L13.3395 9.32914H13.3523H13.3897L13.4227 9.34178L13.4558 9.35757L13.4846 9.48809L13.5134 9.61441L13.5465 9.7323L13.5838 9.84599L13.6254 9.95967L13.6713 10.0734L13.7203 10.1912L13.7779 10.3091L13.8195 10.387L13.8611 10.4649L13.907 10.5418L13.9529 10.6197L14.0019 10.6934L14.051 10.767L14.1043 10.8407L14.1577 10.9144L14.2569 11.0365L14.3635 11.1502L14.4702 11.2639L14.5769 11.3691L14.6921 11.4744L14.8115 11.5723L14.9353 11.666L15.0633 11.7555L15.1497 11.8123L15.2403 11.8649L15.3353 11.9176L15.4259 11.966L15.5699 12.0355L15.7107 12.1007L15.859 12.1576L16.0073 12.2102L16.1481 12.2555L16.2921 12.2923L16.4403 12.3249L16.5843 12.3534L16.7369 12.3734L16.8851 12.3891L17.0377 12.4018L17.1902 12.4102" fill="#FEC50C"/>
<path d="M17.5884 13.6843L17.6588 13.6927L17.6918 13.7053H17.7004H17.6918H17.6833L17.6172 13.718H17.5638L17.391 13.7053H17.1777H16.9505H16.7148H16.6081L16.5014 13.7138L16.4022 13.7222L16.3073 13.7306L16.2284 13.7432L16.158 13.7601L16.1334 13.7685L16.1068 13.7895L16.0865 13.798L16.0705 13.8106L16.079 13.7695L16.095 13.7285L16.0662 13.7369L16.0374 13.7453L16.0129 13.758L15.9884 13.7706L15.9681 13.7832L15.9521 13.799L15.9393 13.819V13.839L15.9265 13.8106L15.918 13.7864V13.758V13.7338V13.7138V13.6895V13.6695L15.9308 13.6495L15.9393 13.6338L15.9553 13.6138L15.9713 13.5969L15.9873 13.5811L16.0332 13.5527L16.0822 13.5243C16.1094 13.54 16.1384 13.5524 16.1686 13.5611C16.1977 13.5635 16.227 13.5606 16.255 13.5527C16.2656 13.5636 16.2785 13.5721 16.2927 13.5776C16.307 13.5832 16.3222 13.5856 16.3375 13.5848C16.3528 13.584 16.3677 13.58 16.3813 13.573C16.3948 13.566 16.4067 13.5562 16.4161 13.5443C16.4251 13.5349 16.432 13.5238 16.4364 13.5117C16.4425 13.485 16.4425 13.4573 16.4364 13.4306H16.4854L16.543 13.4222L16.6049 13.4064L16.671 13.3906L16.7372 13.378L16.799 13.3622L16.8566 13.3538H16.9057L16.8854 13.3695L16.8364 13.4064L16.7788 13.4517L16.7372 13.4801L16.7905 13.4927L16.8364 13.5011L16.8033 13.538L16.7702 13.5748L16.7372 13.6117L16.7126 13.6443L16.7457 13.6569L16.7788 13.6653L16.8161 13.6738H16.8908L16.9281 13.6653L16.9654 13.6569L16.9942 13.6401L17.0273 13.6569L17.0604 13.6695L17.0934 13.678L17.1265 13.6864L17.2012 13.6948L17.2801 13.7032H17.5937" fill="#FEC50C"/>
<path d="M16.3202 13.4531H16.333H16.3458V13.4658V13.4784V13.491V13.5037L16.333 13.5121H16.3042L16.2956 13.5037L16.2871 13.491V13.4784V13.4658L16.2956 13.4531H16.3042H16.3202Z" fill="#FEC50C"/>
<path d="M16.3198 13.4746H16.3281V13.483V13.4915H16.3198H16.3115V13.483V13.4746H16.3198Z" fill="#FEC50C"/>
<path d="M16.3196 13.5249C16.3122 13.5249 16.305 13.5227 16.2988 13.5186C16.2927 13.5146 16.2879 13.5088 16.2851 13.5021C16.2822 13.4954 16.2815 13.488 16.2829 13.4808C16.2844 13.4737 16.2879 13.4671 16.2932 13.462C16.2984 13.4568 16.305 13.4533 16.3123 13.4519C16.3195 13.4505 16.327 13.4512 16.3338 13.454C16.3407 13.4568 16.3465 13.4615 16.3506 13.4675C16.3547 13.4736 16.3569 13.4807 16.3569 13.488C16.3569 13.4978 16.353 13.5072 16.346 13.5141C16.339 13.521 16.3295 13.5249 16.3196 13.5249Z" fill="#FEC50C"/>
<path d="M19.3951 13.8837L19.3663 13.8963H19.3375H19.313H19.2927H19.2724L19.2522 13.8879L19.2362 13.8795L19.2159 13.8669L19.1828 13.8427L19.1498 13.8185L19.1338 13.8058L19.1135 13.7974H19.0975H19.0772L19.0399 13.8742L18.9908 13.9721L18.9748 13.9963L18.9588 14.0163L18.9428 14.029L18.9268 14.0416L18.9066 14.05H18.8799L18.8596 14.0416L18.8351 14.029L18.8266 14.0163L18.818 14.0037L18.8095 13.9879L18.801 13.9679L18.7924 13.9311V13.9069L18.7679 13.9269L18.7434 13.9553L18.7231 13.9879L18.6986 14.0248L18.6698 14.0616L18.641 14.09L18.625 14.1069L18.6047 14.1195L18.5844 14.1279L18.5599 14.1363H18.5471H18.5268H18.5066L18.4906 14.1279L18.4415 14.0711L18.3882 14.0142L18.3508 14.0711L18.3092 14.1195L18.289 14.1395L18.2687 14.1595L18.2484 14.1753L18.2282 14.1879L18.2122 14.1963H18.1919H18.1716H18.1556L18.1396 14.1879L18.1268 14.1753L18.1108 14.1553L18.1023 14.1311L18.0938 14.1069L18.0778 14.0658V14.0458L18.0692 14.03L18.0607 14.0216H18.0522L17.9455 14.2006L17.9295 14.2163L17.9007 14.229L17.8676 14.2374L17.8346 14.2458H17.7972L17.7684 14.2374H17.7599L17.7471 14.2248V14.2163V14.2006L17.7631 14.0216H17.7503L17.7343 14.03L17.7183 14.0385L17.7023 14.0553L17.6692 14.0921L17.6319 14.1332L17.5946 14.1785L17.5487 14.2153L17.5284 14.2311L17.5082 14.2479L17.4836 14.2606H17.4634H17.4346H17.4143H17.4058L17.3972 14.2521V14.2395V14.2269V14.1742L17.4058 14.1216V14.0932V14.069V14.0448L17.3898 14.0163L17.3652 14.0532L17.3236 14.1058L17.2746 14.1585L17.2212 14.2111L17.1924 14.2311L17.1636 14.2511L17.1391 14.2595L17.1188 14.2679H17.1103H17.0666L17.058 14.2595L17.0495 14.2469V14.2342V14.21V14.19V14.0353L16.9428 14.1048L16.8191 14.1827L16.7903 14.1953L16.7572 14.2111L16.7284 14.2195L16.6954 14.2279L16.6666 14.2363H16.6378H16.609L16.5844 14.2279L16.5972 14.1953L16.61 14.1669L16.6228 14.1385L16.6388 14.1142L16.6548 14.09L16.6708 14.0658L16.6911 14.0458L16.7114 14.0258L16.7572 13.9932L16.8106 13.9606L16.8639 13.9363L16.9258 13.9163L16.9876 13.9006L17.058 13.8879L17.1284 13.8753L17.1988 13.8669L17.3514 13.8585H17.5082H17.8132H17.8922H17.9668H18.0415L18.1119 13.85L18.1823 13.8374L18.2442 13.8248L18.306 13.809L18.3636 13.7848L18.417 13.7606L18.4628 13.7279L18.5087 13.6953L18.546 13.65L18.5044 13.569H18.5375L18.5706 13.5606L18.6036 13.5448L18.6324 13.5248L18.6452 13.5163L18.658 13.5037L18.6666 13.4879L18.6751 13.4753V13.4585V13.43L18.6666 13.4142L18.737 13.4016L18.8116 13.3932H18.8906H18.9727L19.1423 13.4016L19.3162 13.4142L19.4932 13.4342L19.6671 13.45L19.8367 13.4658L19.9935 13.4742V13.5311V13.5553L19.985 13.5795L19.9764 13.6037L19.9679 13.6237L19.9551 13.6406L19.9391 13.6606L19.9103 13.689L19.873 13.7132L19.8356 13.729L19.794 13.7374L19.7482 13.7458H19.7023H19.6607L19.6148 13.7332L19.5732 13.7132L19.5316 13.6932L19.4986 13.6648L19.4655 13.6321V13.7016L19.4527 13.7911L19.4442 13.8363L19.4314 13.8774L19.4228 13.8932L19.41 13.9058L19.4015 13.9185L19.3887 13.9269L19.3951 13.8837ZM16.0703 13.5437L16.1652 13.5848L16.1898 13.5648L16.2228 13.5406L16.2602 13.5206L16.2932 13.5006L16.417 13.4521L16.5236 13.4037L16.577 13.3837L16.6228 13.3595L16.6687 13.3353L16.706 13.3111L16.801 13.25L16.8959 13.189L16.9866 13.1321L17.0687 13.0753L17.1306 13.0269L17.1796 12.9816L17.233 12.9332L17.2906 12.8806L17.3108 12.8606L17.3354 12.8448L17.3642 12.829L17.3972 12.8132L17.4676 12.7806L17.538 12.7563L17.633 12.7321L17.7396 12.7079L17.8463 12.6879L17.9658 12.6679L18.1098 12.6521L18.2538 12.6321L18.402 12.6163L18.546 12.5921L18.5951 12.5837L18.641 12.5711L18.69 12.5585L18.7391 12.5458L18.7882 12.4848L18.8671 12.3995L18.9204 12.3469L18.9823 12.2985L19.0527 12.2458L19.1348 12.1932L19.2586 12.1195L19.3908 12.0542L19.5274 11.9848L19.6596 11.9237L19.7834 11.8627L19.8986 11.8058L19.9935 11.7574L20.0682 11.709L20.0884 11.6479L20.1172 11.5869L20.1599 11.4732L20.2058 11.4121L20.2548 11.3469L20.3167 11.2816L20.3828 11.2079L20.465 11.1311L20.5396 11.0658L20.6186 11.0006L20.6602 10.9721L20.7018 10.9437L20.7476 10.9195L20.7935 10.8953L20.8394 10.8753L20.8852 10.8595L20.9343 10.8469L20.9802 10.8342H21.0292H21.0751H21.1242L21.17 10.8427V10.8911L21.1572 10.9395L21.1412 10.9879L21.121 11.0406L21.0922 11.0932L21.0548 11.1458L21.009 11.2027L20.9556 11.2595H20.9972L21.0346 11.2511L21.0634 11.2427L21.0922 11.23L21.1167 11.2216L21.1455 11.2132H21.1828H21.2244V11.2416V11.27V11.2985L21.2159 11.3227L21.2031 11.3469L21.1871 11.3711L21.1711 11.3911L21.1508 11.4111L21.0644 11.4921L20.978 11.57H21.0271L21.0804 11.5858L21.1338 11.6016L21.1754 11.61L21.1263 11.6469L21.0687 11.6837L21.0111 11.7206L20.945 11.7574L20.8788 11.7942L20.8127 11.8353L20.7466 11.8806L20.6847 11.929H20.7135L20.7508 11.9448H20.7668L20.7828 11.9532H20.7956H20.8084L20.7263 11.9985L20.6196 12.0469L20.5706 12.0711L20.529 12.0953L20.5087 12.1079L20.4959 12.1206L20.4874 12.1332L20.4788 12.1458V12.1627L20.4874 12.1753L20.5034 12.1879L20.5162 12.2006V12.2163L20.5076 12.229L20.4916 12.2416L20.4756 12.2542L20.4383 12.2742L20.3892 12.2942L20.3402 12.31L20.2943 12.3269L20.2612 12.3427L20.2367 12.3553L20.3188 12.4363L20.29 12.4648L20.2612 12.4848L20.2367 12.4974L20.2079 12.51L20.1503 12.5185H20.0714L20.0799 12.5553L20.0927 12.5921L20.1012 12.6332L20.1098 12.6742L20.0394 12.7269L19.953 12.7879L19.858 12.849L19.7514 12.91L19.6895 12.9427L19.6276 12.9711L19.5615 12.9953L19.4911 13.0195L19.4164 13.0437L19.3386 13.0606L19.2564 13.0763L19.17 13.089H19.3226H19.4548L19.5786 13.0763L19.6852 13.0637L19.7919 13.0437L19.8826 13.0195L19.9732 12.9869L20.0596 12.9542L20.1748 12.9016L20.2815 12.8406L20.3882 12.7753L20.4948 12.71L20.4287 12.6774L20.3626 12.6574L20.3295 12.6448L20.2964 12.6279L20.2591 12.6121L20.2218 12.5921L20.2548 12.5679L20.2922 12.5521L20.338 12.5363L20.3871 12.5237L20.4863 12.5037L20.593 12.4911L20.6836 12.4785L20.7658 12.47L20.7988 12.4616L20.8276 12.4532L20.8436 12.4448L20.8564 12.4321L20.8479 12.4237H20.8351L20.8191 12.4153L20.7732 12.4069L20.7156 12.3985H20.658L20.6004 12.39L20.5514 12.3774L20.5183 12.3648L20.625 12.3406L20.7316 12.3163L20.8308 12.2963L20.913 12.2763L20.9834 12.2563L21.0452 12.2321L21.074 12.2195L21.0943 12.2069L21.1146 12.1942L21.1306 12.1785L21.122 12.17H21.106H21.0858H21.0324H20.9706H20.9044H20.8426L20.7892 12.1616L20.7562 12.1532L20.785 12.1406L20.8138 12.1279L20.913 12.0995L20.9994 12.0753L21.0772 12.0553L21.1519 12.0311L21.2298 12.0069L21.3087 11.9742L21.346 11.9542L21.3791 11.9342L21.3919 11.9216L21.4047 11.9058L21.4175 11.8932V11.8806V11.8679L21.4047 11.8595H21.3919H21.2767H21.2234H21.1487H21.1284L21.1124 11.8511L21.0964 11.8427L21.2618 11.7374L21.4143 11.6395L21.5508 11.5542L21.6703 11.4732L21.7194 11.4321L21.7652 11.3911L21.8026 11.35L21.8356 11.309L21.8602 11.2637L21.8804 11.2185L21.8932 11.17V11.1174H21.8666H21.8378L21.8047 11.13L21.7716 11.1427L21.7055 11.1837L21.6351 11.2248L21.5978 11.2448L21.5647 11.2648L21.5274 11.2806L21.49 11.2932L21.457 11.3016H21.4239H21.3866L21.3535 11.289L21.4527 11.2153L21.5594 11.1216L21.6874 11.0163L21.8154 10.8942L21.9434 10.7637L22.0628 10.6332L22.1162 10.5637L22.1695 10.4985L22.2154 10.4332L22.257 10.3721L22.2655 10.3553V10.3427V10.3269V10.3142V10.3016L22.2527 10.2932L22.2399 10.2806H22.2271L22.2111 10.2721H22.1951H22.162H22.146H22.1258L22.113 10.2848L22.097 10.2974L22.0223 10.3711L21.9359 10.4563L21.8452 10.55L21.746 10.6437L21.6468 10.729L21.5476 10.81L21.4986 10.8427L21.4527 10.8711L21.4036 10.8953L21.362 10.9153L21.3908 10.8911L21.4282 10.8542L21.4772 10.8058L21.5306 10.7448L21.65 10.6027L21.7823 10.4353L21.8484 10.3458L21.9103 10.2563L21.9722 10.1711L22.0255 10.0816L22.0746 10.0006L22.1162 9.92687L22.1492 9.8574L22.1695 9.80056V9.78056V9.74793V9.7353L22.161 9.72267L22.1524 9.71003L22.1439 9.70161H22.1311L22.1066 9.68898L22.0778 9.68056H22.0202H22.0042H21.9914L21.9754 9.68898L21.9626 9.70161L21.9295 9.73003L21.8964 9.77109L21.8218 9.86477L21.7428 9.98266L21.6532 10.0837L21.5615 10.21L21.5082 10.2711L21.4591 10.3321L21.4058 10.3848L21.3482 10.4332L21.4228 10.2985L21.4975 10.1437L21.5391 10.0585L21.5764 9.97319L21.6138 9.88372L21.6468 9.79424L21.6756 9.70056L21.7044 9.61109L21.7247 9.52161L21.7407 9.43214L21.7492 9.34688V9.26582V9.22477V9.18793V9.15109L21.7407 9.11424V9.10161L21.7322 9.08898L21.7194 9.07635L21.7108 9.06793L21.682 9.0553L21.6532 9.04688H21.6244H21.5999H21.5914H21.5786V9.0553V9.06793L21.537 9.20266L21.4996 9.3374L21.4399 9.4974L21.4026 9.63635L21.3652 9.7753L21.3162 9.90582L21.2916 9.97109L21.2628 10.0279L21.2298 10.089L21.1924 10.1416L21.217 10.0237L21.233 9.91845L21.249 9.82056L21.2575 9.73109L21.266 9.65319V9.58372V9.52688V9.47845L21.2575 9.4374L21.2447 9.40477L21.2362 9.39214L21.2276 9.37951L21.2191 9.37109H21.2063H21.1935H21.1807H21.1679H21.1551L21.1199 9.36793L21.0868 9.38372L21.058 9.51424L21.0292 9.64056L20.9962 9.75845L20.9588 9.87214L20.9172 9.98582L20.8767 10.1048L20.8276 10.2227L20.77 10.3406L20.7284 10.4185L20.6868 10.4953L20.641 10.5732L20.5951 10.6511L20.546 10.7248L20.497 10.7985L20.4436 10.8721L20.3903 10.9458L20.2911 11.0679L20.1844 11.1816L20.0778 11.2953L19.9711 11.4006L19.8559 11.5058L19.7364 11.6037L19.6127 11.6974L19.4847 11.7869L19.3983 11.8437L19.3076 11.9006L19.217 11.9532L19.1263 12.0058L18.9823 12.0711L18.8383 12.1363L18.69 12.189L18.5418 12.2416L18.418 12.2785L18.2943 12.3153L18.1663 12.3437L18.0383 12.3721L17.9103 12.3921L17.778 12.409L17.65 12.4248L17.5178 12.4332H17.505H17.4922L17.4676 12.4458L17.4388 12.4658L17.3972 12.5027L17.3439 12.5511L17.2778 12.6163L17.1988 12.7016L17.1242 12.7869L17.0378 12.8806L16.9919 12.9258L16.946 12.9711L16.8927 13.0121L16.8394 13.0532L16.7978 13.0816L16.7562 13.1058L16.7103 13.1258L16.6644 13.1458L16.5652 13.1869L16.466 13.2237L16.3668 13.2606L16.2804 13.2932L16.2431 13.309L16.2058 13.329L16.1727 13.3448L16.1482 13.3606L16.1236 13.3848L16.1034 13.4048L16.0906 13.4248L16.082 13.4448V13.4732V13.489" fill="#FEC50C"/>
<path d="M16.3201 13.4982C16.3173 13.4982 16.3145 13.4974 16.3121 13.4957C16.3097 13.4941 16.3079 13.4918 16.3068 13.4891C16.3057 13.4864 16.3054 13.4835 16.3059 13.4806C16.3065 13.4778 16.3079 13.4751 16.3099 13.4731C16.3119 13.471 16.3145 13.4696 16.3173 13.469C16.3201 13.4685 16.323 13.4688 16.3257 13.4699C16.3283 13.471 16.3306 13.4729 16.3322 13.4753C16.3337 13.4777 16.3346 13.4806 16.3346 13.4835C16.3346 13.4874 16.3331 13.4911 16.3304 13.4939C16.3276 13.4967 16.324 13.4982 16.3201 13.4982Z" fill="#FEC50C" stroke="#00AFCA" stroke-width="0.19"/>
<path d="M2.10872 5.99952C2.10872 6.39636 2.46926 6.59952 2.74872 6.59952C3.13059 6.59952 3.33326 6.37426 3.33326 6.07952C3.33578 5.92901 3.29905 5.7804 3.22659 5.64794C3.22659 5.64794 2.59726 4.35531 2.35192 3.85847C2.32009 3.78366 2.30622 3.7026 2.31139 3.62162C2.3121 3.53787 2.34649 3.45783 2.407 3.3991C2.46751 3.34037 2.54919 3.30777 2.63406 3.30847C2.71893 3.30916 2.80004 3.3431 2.85955 3.40282C2.91906 3.46254 2.9521 3.54313 2.95139 3.62689C2.95139 3.82478 2.84472 3.91215 2.73806 3.91215C2.60686 3.91215 2.55459 3.85847 2.55459 3.76794C2.55459 3.70478 2.58552 3.67741 2.63032 3.67741C2.74232 3.67741 2.71139 3.82689 2.71139 3.82689C2.72692 3.82399 2.7416 3.81772 2.75437 3.80853C2.76714 3.79934 2.77769 3.78747 2.78524 3.77377C2.7928 3.76007 2.79717 3.74489 2.79805 3.72931C2.79893 3.71374 2.79629 3.69817 2.79032 3.68373C2.83184 3.67395 2.86917 3.65147 2.89699 3.61952C2.86835 3.58961 2.83113 3.56905 2.79032 3.56057C2.79671 3.54557 2.79949 3.52932 2.79844 3.51308C2.79739 3.49684 2.79254 3.48107 2.78427 3.46699C2.776 3.45292 2.76454 3.44093 2.75078 3.43196C2.73703 3.42299 2.72135 3.41729 2.70499 3.41531C2.71823 3.44396 2.72197 3.47601 2.71566 3.50689C2.68034 3.49504 2.64262 3.49187 2.60578 3.49766C2.56894 3.50345 2.53408 3.51802 2.50424 3.54011C2.47439 3.56219 2.45046 3.59113 2.43451 3.62442C2.41856 3.6577 2.41109 3.69432 2.41272 3.7311C2.4094 3.78204 2.41844 3.83304 2.43909 3.87985C2.45974 3.92665 2.4914 3.96793 2.53144 4.00025C2.57149 4.03256 2.61877 4.05499 2.66936 4.06566C2.71995 4.07634 2.77239 4.07495 2.82232 4.06162C2.7916 4.07636 2.76548 4.099 2.74671 4.12716C2.72794 4.15532 2.71721 4.18795 2.71566 4.22162C2.74998 4.20952 2.78592 4.20243 2.82232 4.20057C2.77492 4.26074 2.74937 4.33488 2.74979 4.4111C2.79886 4.38899 2.84579 4.34794 2.90872 4.37426C2.80952 4.56794 2.93112 4.83426 3.24259 4.90057C3.13583 4.78538 3.07551 4.6356 3.07299 4.47952C3.07299 4.02057 3.20206 3.94268 3.20206 3.62373C3.19989 3.54934 3.17992 3.47651 3.14377 3.41119C3.10762 3.34588 3.05632 3.28994 2.99406 3.24794V3.2532C3.03205 3.24569 3.06803 3.23038 3.09963 3.20825C3.13124 3.18613 3.15778 3.15769 3.17752 3.12478C2.95649 3.06571 2.72324 3.06789 2.50339 3.1311C2.43027 3.14221 2.36056 3.16923 2.29931 3.21019C2.23807 3.25115 2.18681 3.30503 2.14926 3.36794C2.11007 3.45715 2.08984 3.55334 2.08984 3.65057C2.08984 3.7478 2.11007 3.844 2.14926 3.9332C2.27299 4.18899 2.85646 5.40689 3.03886 5.79426C3.07886 5.87566 3.09999 5.96484 3.10072 6.05531C3.09935 6.09826 3.08939 6.14052 3.07142 6.17966C3.05345 6.2188 3.02782 6.25406 2.996 6.2834C2.96419 6.31274 2.92681 6.33559 2.88603 6.35064C2.84524 6.36569 2.80184 6.37264 2.75832 6.3711C2.68563 6.37403 2.61448 6.3499 2.55896 6.3035C2.50345 6.2571 2.46762 6.19181 2.45859 6.12057C2.45859 6.03215 2.50659 5.97952 2.57699 5.97952C2.74446 5.97952 2.73486 6.12057 2.70072 6.20899C2.74549 6.19514 2.78439 6.16711 2.81138 6.12924C2.83838 6.09138 2.85197 6.04578 2.85006 5.99952C2.91575 5.98996 2.97547 5.95655 3.01752 5.90583C2.99865 5.87894 2.9737 5.85676 2.94463 5.84105C2.91556 5.82534 2.88318 5.81652 2.85006 5.81531C2.88312 5.68057 2.79139 5.62268 2.70179 5.5911C2.73059 5.69005 2.74872 5.80162 2.57806 5.80162C2.52614 5.7952 2.47342 5.80144 2.42451 5.81979C2.3756 5.83814 2.332 5.86805 2.29752 5.90689C2.29752 5.80162 2.28366 5.38057 2.28366 5.38057C2.27619 5.22268 2.49699 5.22689 2.63992 5.27531C2.58659 5.0932 2.47779 4.99426 2.22499 5.01952C2.26421 5.00332 2.29716 4.97518 2.31904 4.93921C2.34091 4.90323 2.35057 4.86129 2.34659 4.81952C2.34081 4.74842 2.31975 4.67935 2.2848 4.61691C2.24985 4.55448 2.20183 4.5001 2.14392 4.45741L2.10872 5.99952Z" fill="#FEC50C"/>
<path d="M2.14952 18.4197C2.14952 18.4197 1.95859 18.5776 1.89459 18.4986C1.78792 18.3712 2.21459 17.7365 2.21459 17.5134C2.21459 17.147 1.96606 17.047 1.65992 16.9944C1.48009 16.9772 1.29878 16.9821 1.12019 17.0091C1.14157 17.0458 1.17282 17.0759 1.21046 17.0962C1.24811 17.1164 1.2907 17.126 1.33352 17.1239C1.26012 17.1614 1.19883 17.2185 1.1566 17.2886C1.11438 17.3587 1.09289 17.4392 1.09459 17.5207C1.09459 17.8365 1.22579 17.966 1.22579 18.3218C1.20651 18.4817 1.15032 18.6351 1.06152 18.7702C1.12168 18.7675 1.18039 18.7512 1.23305 18.7223C1.2857 18.6935 1.33086 18.653 1.36498 18.604C1.39909 18.5551 1.42123 18.499 1.42965 18.4401C1.43808 18.3813 1.43256 18.3213 1.41352 18.2649C1.43563 18.261 1.45838 18.2622 1.47989 18.2686C1.5014 18.275 1.52106 18.2864 1.53726 18.3018C1.54339 18.2686 1.54137 18.2345 1.53134 18.2022C1.52132 18.17 1.50359 18.1406 1.47966 18.1165C1.51592 18.0976 1.54259 18.1091 1.60019 18.1165C1.59389 18.0777 1.57871 18.0409 1.55578 18.0088C1.53286 17.9767 1.50281 17.9501 1.46792 17.9312C1.51607 17.9471 1.56735 17.9514 1.61752 17.9439C1.6677 17.9363 1.71533 17.9171 1.75649 17.8878C1.79766 17.8585 1.83116 17.8199 1.85425 17.7753C1.87733 17.7307 1.88933 17.6813 1.88926 17.6312C1.89386 17.5732 1.87575 17.5157 1.83864 17.4704C1.80153 17.4252 1.74826 17.3957 1.68979 17.3881C1.65183 17.3888 1.61486 17.4001 1.58312 17.4207C1.57531 17.3995 1.57213 17.3769 1.57378 17.3544C1.57544 17.3319 1.58189 17.3101 1.59272 17.2902C1.52019 17.3091 1.47539 17.3512 1.50739 17.4397C1.48297 17.4405 1.45897 17.4461 1.4368 17.4562C1.41462 17.4663 1.39474 17.4808 1.37832 17.4986C1.39349 17.5179 1.41313 17.5333 1.43558 17.5436C1.45804 17.5539 1.48267 17.5586 1.50739 17.5576C1.46686 17.6397 1.50739 17.686 1.57779 17.7228C1.57779 17.7228 1.53619 17.5576 1.64286 17.5576C1.69086 17.5576 1.73459 17.5734 1.73459 17.6428C1.73396 17.6644 1.72867 17.6856 1.71906 17.705C1.70946 17.7244 1.69576 17.7416 1.6789 17.7553C1.66203 17.7691 1.64238 17.7791 1.62127 17.7848C1.60015 17.7904 1.57805 17.7915 1.55646 17.7881C1.43272 17.7828 1.33139 17.7039 1.33139 17.5081C1.33139 17.3123 1.47859 17.2386 1.67272 17.2323C1.71125 17.2264 1.75062 17.229 1.78804 17.2398C1.82546 17.2505 1.86004 17.2693 1.88933 17.2947C1.91861 17.3201 1.94191 17.3515 1.95756 17.3867C1.97321 17.422 1.98085 17.4602 1.97992 17.4986C1.97992 17.7355 1.63326 18.2765 1.63326 18.4881C1.63514 18.5231 1.64411 18.5574 1.65965 18.5889C1.6752 18.6204 1.69699 18.6486 1.72374 18.6716C1.7505 18.6947 1.78167 18.7122 1.81541 18.7232C1.84915 18.7341 1.88478 18.7383 1.92019 18.7355C2.05149 18.7193 2.17201 18.6555 2.25832 18.5565L2.15166 18.4228L2.14952 18.4197Z" fill="#FEC50C"/>
<path d="M2.10917 14.1352C2.10917 13.7383 2.46971 13.5352 2.74917 13.5352C3.13104 13.5352 3.33371 13.7604 3.33371 14.0552C3.33623 14.2057 3.2995 14.3543 3.22704 14.4867C3.22704 14.4867 2.59771 15.7794 2.35237 16.2762C2.32054 16.351 2.30667 16.4321 2.31184 16.5131C2.31255 16.5968 2.34694 16.6768 2.40745 16.7356C2.46796 16.7943 2.54964 16.8269 2.63451 16.8262C2.71938 16.8255 2.80049 16.7916 2.86 16.7319C2.91951 16.6721 2.95255 16.5915 2.95184 16.5078C2.95184 16.3099 2.84517 16.2225 2.73851 16.2225C2.60731 16.2225 2.55504 16.2762 2.55504 16.3667C2.55504 16.4299 2.58597 16.4573 2.63077 16.4573C2.74277 16.4573 2.71184 16.3078 2.71184 16.3078C2.72656 16.3112 2.74038 16.3176 2.75238 16.3267C2.76438 16.3358 2.77429 16.3473 2.78145 16.3604C2.78861 16.3736 2.79286 16.388 2.79392 16.4029C2.79497 16.4178 2.79281 16.4327 2.78757 16.4467C2.82912 16.4564 2.86647 16.4789 2.89424 16.5109C2.8656 16.5409 2.82838 16.5614 2.78757 16.5699C2.79396 16.5849 2.79674 16.6011 2.79569 16.6174C2.79464 16.6336 2.78979 16.6494 2.78152 16.6635C2.77325 16.6775 2.76179 16.6895 2.74803 16.6985C2.73428 16.7075 2.7186 16.7132 2.70224 16.7152C2.71548 16.6865 2.71922 16.6544 2.71291 16.6236C2.67759 16.6354 2.63987 16.6386 2.60303 16.6328C2.56619 16.627 2.53133 16.6124 2.50149 16.5904C2.47164 16.5683 2.44771 16.5393 2.43176 16.506C2.41581 16.4728 2.40834 16.4361 2.40997 16.3994C2.40665 16.3484 2.41569 16.2974 2.43634 16.2506C2.45699 16.2038 2.48865 16.1625 2.52869 16.1302C2.56874 16.0979 2.61602 16.0755 2.66661 16.0648C2.7172 16.0541 2.76964 16.0555 2.81957 16.0688C2.78886 16.0541 2.76273 16.0315 2.74396 16.0033C2.72519 15.9751 2.71446 15.9425 2.71291 15.9088C2.74723 15.9209 2.78317 15.928 2.81957 15.9299C2.77217 15.8697 2.74662 15.7956 2.74704 15.7194C2.79611 15.7415 2.84304 15.7825 2.90597 15.7573C2.80677 15.5636 2.92837 15.2973 3.23984 15.2309C3.13309 15.3461 3.07276 15.4959 3.07024 15.652C3.07024 16.1109 3.19931 16.1888 3.19931 16.5078C3.19714 16.5822 3.17717 16.655 3.14102 16.7203C3.10487 16.7856 3.05357 16.8416 2.99131 16.8836V16.8783C3.0293 16.8858 3.06528 16.9011 3.09688 16.9233C3.12849 16.9454 3.15503 16.9738 3.17477 17.0067C2.95375 17.0658 2.72049 17.0636 2.50064 17.0004C2.42733 16.9898 2.35732 16.9633 2.2957 16.9227C2.23407 16.8821 2.18238 16.8284 2.14437 16.7657C2.10518 16.6765 2.08496 16.5803 2.08496 16.483C2.08496 16.3858 2.10518 16.2896 2.14437 16.2004C2.26811 15.9446 2.85157 14.7267 3.03397 14.3383C3.07398 14.2569 3.09511 14.1677 3.09584 14.0773C3.09446 14.0343 3.0845 13.9921 3.06653 13.9529C3.04856 13.9138 3.02293 13.8785 2.99112 13.8492C2.95931 13.8198 2.92193 13.797 2.88114 13.7819C2.84036 13.7669 2.79696 13.7599 2.75344 13.7615C2.68075 13.7585 2.6096 13.7827 2.55408 13.8291C2.49856 13.8755 2.46274 13.9408 2.45371 14.012C2.45371 14.1004 2.50171 14.1531 2.57211 14.1531C2.73957 14.1531 2.72997 14.012 2.69584 13.9236C2.74153 13.9379 2.781 13.9669 2.8079 14.0061C2.83479 14.0452 2.84755 14.0922 2.84411 14.1394C2.90977 14.149 2.96945 14.1824 3.01157 14.233C2.9927 14.2599 2.96775 14.2821 2.93868 14.2978C2.90961 14.3135 2.87723 14.3224 2.84411 14.3236C2.87717 14.4583 2.78544 14.5162 2.69584 14.5478C2.72464 14.4488 2.74277 14.3373 2.57211 14.3373C2.52019 14.3437 2.46747 14.3374 2.41856 14.3191C2.36965 14.3007 2.32605 14.2708 2.29157 14.232C2.29157 14.3373 2.27771 14.7583 2.27771 14.7583C2.27024 14.9162 2.49104 14.912 2.63397 14.8636C2.58064 15.0457 2.47184 15.1446 2.21904 15.1194C2.25946 15.1345 2.29379 15.1622 2.31688 15.1983C2.33996 15.2343 2.35055 15.2768 2.34704 15.3194C2.34111 15.3903 2.31998 15.4591 2.28504 15.5214C2.2501 15.5836 2.20215 15.6378 2.14437 15.6804L2.10384 14.1352H2.10917Z" fill="#FEC50C"/>
<path d="M2.18853 14.1352C2.18853 13.7383 1.82799 13.5352 1.54853 13.5352C1.16666 13.5352 0.963994 13.7604 0.963994 14.0552C0.96142 14.2057 0.998155 14.3543 1.07066 14.4867C1.07066 14.4867 1.69999 15.7794 1.94533 16.2762C1.97716 16.351 1.99103 16.4321 1.98586 16.5131C1.98515 16.5968 1.95076 16.6768 1.89025 16.7356C1.82974 16.7943 1.74806 16.8269 1.66319 16.8262C1.57832 16.8255 1.49721 16.7916 1.4377 16.7319C1.37819 16.6721 1.34515 16.5915 1.34586 16.5078C1.34586 16.3099 1.45253 16.2225 1.55919 16.2225C1.69039 16.2225 1.74266 16.2762 1.74266 16.3667C1.74266 16.4299 1.71173 16.4573 1.66693 16.4573C1.55493 16.4573 1.58586 16.3078 1.58586 16.3078C1.57114 16.3112 1.55732 16.3176 1.54532 16.3267C1.53332 16.3358 1.52341 16.3473 1.51625 16.3604C1.50909 16.3736 1.50484 16.388 1.50379 16.4029C1.50273 16.4178 1.50489 16.4327 1.51013 16.4467C1.46858 16.4564 1.43123 16.4789 1.40346 16.5109C1.43206 16.5409 1.4693 16.5615 1.51013 16.5699C1.50374 16.5849 1.50096 16.6011 1.50201 16.6174C1.50306 16.6336 1.50791 16.6494 1.51618 16.6635C1.52445 16.6775 1.53591 16.6895 1.54967 16.6985C1.56342 16.7075 1.5791 16.7132 1.59546 16.7152C1.58222 16.6865 1.57848 16.6544 1.58479 16.6236C1.62011 16.6354 1.65783 16.6386 1.69467 16.6328C1.73152 16.627 1.76637 16.6124 1.79622 16.5904C1.82606 16.5683 1.84999 16.5393 1.86594 16.506C1.88189 16.4728 1.88937 16.4361 1.88773 16.3994C1.89105 16.3484 1.88201 16.2974 1.86136 16.2506C1.84071 16.2038 1.80905 16.1625 1.76901 16.1302C1.72896 16.0979 1.68168 16.0755 1.63109 16.0648C1.5805 16.0541 1.52806 16.0555 1.47813 16.0688C1.50878 16.054 1.53484 16.0314 1.5536 16.0032C1.57236 15.9751 1.58313 15.9425 1.58479 15.9088C1.55047 15.9209 1.51453 15.928 1.47813 15.9299C1.52553 15.8697 1.55108 15.7956 1.55066 15.7194C1.50159 15.7415 1.45466 15.7825 1.39173 15.7573C1.49093 15.5636 1.36933 15.2973 1.05786 15.2309C1.16462 15.3461 1.22495 15.4959 1.22746 15.652C1.22746 16.1109 1.09839 16.1888 1.09839 16.5078C1.10056 16.5822 1.12053 16.655 1.15668 16.7203C1.19283 16.7856 1.24414 16.8416 1.30639 16.8836V16.8783C1.2684 16.8858 1.23242 16.9011 1.20082 16.9233C1.16921 16.9454 1.14267 16.9738 1.12293 17.0067C1.34396 17.0658 1.57721 17.0636 1.79706 17.0004C1.87038 16.9898 1.94038 16.9633 2.00201 16.9227C2.06363 16.8821 2.11532 16.8284 2.15333 16.7657C2.19252 16.6765 2.21274 16.5803 2.21274 16.483C2.21274 16.3858 2.19252 16.2896 2.15333 16.2004C2.02959 15.9446 1.44613 14.7267 1.26373 14.3383C1.22376 14.2569 1.20263 14.1677 1.20186 14.0773C1.2031 14.0343 1.21296 13.9919 1.23088 13.9527C1.24881 13.9135 1.27443 13.8782 1.30628 13.8488C1.33812 13.8195 1.37555 13.7966 1.4164 13.7816C1.45725 13.7666 1.50071 13.7598 1.54426 13.7615C1.61695 13.7585 1.68811 13.7827 1.74362 13.8291C1.79914 13.8755 1.83496 13.9408 1.84399 14.012C1.84399 14.1004 1.79599 14.1531 1.72559 14.1531C1.55813 14.1531 1.56773 14.012 1.60186 13.9236C1.55618 13.9379 1.5167 13.9669 1.48981 14.0061C1.46291 14.0452 1.45015 14.0922 1.45359 14.1394C1.38793 14.149 1.32825 14.1824 1.28613 14.233C1.305 14.2599 1.32996 14.2821 1.35902 14.2978C1.38809 14.3135 1.42047 14.3224 1.45359 14.3236C1.42053 14.4583 1.51226 14.5162 1.60186 14.5478C1.57306 14.4488 1.55493 14.3373 1.72559 14.3373C1.77751 14.3437 1.83023 14.3374 1.87914 14.3191C1.92805 14.3007 1.97165 14.2708 2.00613 14.232C2.00613 14.3373 2.01999 14.7583 2.01999 14.7583C2.02746 14.9162 1.80666 14.912 1.66373 14.8636C1.71706 15.0457 1.82586 15.1446 2.07866 15.1194C2.0399 15.1343 2.00683 15.1607 1.98408 15.1951C1.96132 15.2294 1.95001 15.2699 1.95173 15.3109C1.95772 15.3818 1.97888 15.4507 2.01382 15.5129C2.04875 15.5752 2.09667 15.6294 2.15439 15.672L2.19493 14.1267L2.18853 14.1352Z" fill="#FEC50C"/>
<path d="M2.14884 18.4197C2.14884 18.4197 2.33977 18.5776 2.40377 18.4986C2.51044 18.3712 2.08377 17.7365 2.08377 17.5134C2.08377 17.147 2.33231 17.047 2.63844 16.9944C2.81827 16.9772 2.99958 16.9821 3.17817 17.0091C3.15679 17.0458 3.12555 17.0759 3.0879 17.0962C3.05025 17.1164 3.00766 17.126 2.96484 17.1239C3.03824 17.1614 3.09953 17.2185 3.14176 17.2886C3.18399 17.3587 3.20547 17.4392 3.20377 17.5207C3.20377 17.8365 3.07257 17.966 3.07257 18.3218C3.09185 18.4817 3.14805 18.6351 3.23684 18.7702C3.17668 18.7675 3.11797 18.7512 3.06532 18.7223C3.01266 18.6935 2.9675 18.653 2.93339 18.604C2.89927 18.5551 2.87713 18.499 2.86871 18.4401C2.86029 18.3813 2.86581 18.3213 2.88484 18.2649C2.86273 18.261 2.83999 18.2622 2.81847 18.2686C2.79696 18.275 2.7773 18.2864 2.76111 18.3018C2.75497 18.2686 2.757 18.2345 2.76702 18.2022C2.77704 18.17 2.79477 18.1406 2.81871 18.1165C2.78244 18.0976 2.75577 18.1091 2.69817 18.1165C2.70447 18.0777 2.71966 18.0409 2.74258 18.0088C2.7655 17.9767 2.79555 17.9501 2.83044 17.9312C2.78229 17.9471 2.73102 17.9514 2.68084 17.9439C2.63066 17.9363 2.58303 17.9171 2.54187 17.8878C2.50071 17.8585 2.4672 17.8199 2.44412 17.7753C2.42103 17.7307 2.40903 17.6813 2.40911 17.6312C2.4045 17.5732 2.42262 17.5157 2.45973 17.4704C2.49683 17.4252 2.55011 17.3957 2.60857 17.3881C2.64653 17.3888 2.68351 17.4001 2.71524 17.4207C2.72305 17.3995 2.72624 17.3769 2.72458 17.3544C2.72293 17.3319 2.71647 17.3101 2.70564 17.2902C2.77817 17.3091 2.82297 17.3512 2.79097 17.4397C2.81539 17.4405 2.8394 17.4461 2.86157 17.4562C2.88374 17.4663 2.90362 17.4808 2.92004 17.4986C2.90487 17.5179 2.88524 17.5333 2.86278 17.5436C2.84032 17.5539 2.8157 17.5586 2.79097 17.5576C2.83151 17.6397 2.79097 17.686 2.72057 17.7228C2.72057 17.7228 2.76217 17.5576 2.65551 17.5576C2.60751 17.5576 2.56377 17.5734 2.56377 17.6428C2.5644 17.6644 2.5697 17.6856 2.5793 17.705C2.58891 17.7244 2.6026 17.7416 2.61947 17.7553C2.63633 17.7691 2.65598 17.7791 2.6771 17.7848C2.69821 17.7904 2.72031 17.7915 2.74191 17.7881C2.86564 17.7828 2.96591 17.7039 2.96591 17.5081C2.96591 17.3123 2.81871 17.2386 2.62457 17.2323C2.58604 17.2264 2.54668 17.229 2.50926 17.2398C2.47183 17.2505 2.43726 17.2693 2.40797 17.2947C2.37868 17.3201 2.35539 17.3515 2.33974 17.3867C2.32408 17.422 2.31645 17.4602 2.31737 17.4986C2.31737 17.7355 2.66404 18.2765 2.66404 18.4881C2.66215 18.523 2.65321 18.5572 2.63773 18.5886C2.62226 18.6201 2.60056 18.6482 2.57392 18.6712C2.54729 18.6943 2.51625 18.7118 2.48263 18.7229C2.44901 18.7339 2.41349 18.7382 2.37817 18.7355C2.24687 18.7193 2.12635 18.6555 2.04004 18.5565L2.14671 18.4228L2.14884 18.4197Z" fill="#FEC50C"/>
<path d="M2.10899 7.1918C2.10899 6.79495 2.46953 6.5918 2.74899 6.5918C3.13086 6.5918 3.33353 6.81706 3.33353 7.1118C3.33605 7.2623 3.29932 7.41092 3.22686 7.54338C3.22686 7.54338 2.59753 8.83601 2.35219 9.33285C2.31977 9.41041 2.3066 9.49451 2.31379 9.57811C2.3145 9.66187 2.34889 9.74191 2.40941 9.80064C2.46992 9.85937 2.55159 9.89197 2.63646 9.89127C2.72133 9.89057 2.80244 9.85663 2.86195 9.79692C2.92147 9.7372 2.9545 9.6566 2.95379 9.57285C2.95379 9.37495 2.84713 9.28759 2.74046 9.28759C2.60926 9.28759 2.55699 9.34127 2.55699 9.4318C2.55699 9.49495 2.58793 9.52232 2.63273 9.52232C2.74473 9.52232 2.71379 9.37285 2.71379 9.37285C2.72851 9.37625 2.74233 9.3827 2.75433 9.39178C2.76633 9.40085 2.77624 9.41234 2.7834 9.42547C2.79056 9.43861 2.79481 9.4531 2.79587 9.46799C2.79693 9.48287 2.79476 9.4978 2.78953 9.5118C2.83105 9.52158 2.86838 9.54405 2.89619 9.57601C2.86755 9.60592 2.83033 9.62648 2.78953 9.63495C2.79591 9.64995 2.79869 9.66621 2.79764 9.68245C2.79659 9.69868 2.79174 9.71446 2.78347 9.72853C2.77521 9.74261 2.76374 9.7546 2.74999 9.76357C2.73623 9.77254 2.72056 9.77823 2.70419 9.78022C2.71744 9.75156 2.72117 9.71951 2.71486 9.68864C2.67954 9.70049 2.64182 9.70366 2.60498 9.69787C2.56814 9.69208 2.53328 9.67751 2.50344 9.65542C2.47359 9.63333 2.44966 9.60439 2.43371 9.57111C2.41777 9.53783 2.41029 9.50121 2.41193 9.46443C2.40861 9.41348 2.41764 9.36249 2.43829 9.31568C2.45894 9.26887 2.4906 9.2276 2.53065 9.19528C2.5707 9.16296 2.61797 9.14054 2.66856 9.12986C2.71915 9.11919 2.77159 9.12057 2.82153 9.1339C2.79081 9.11917 2.76469 9.09653 2.74591 9.06837C2.72714 9.04021 2.71641 9.00757 2.71486 8.9739C2.74919 8.98601 2.78512 8.9931 2.82153 8.99495C2.77405 8.93482 2.74849 8.86066 2.74899 8.78443C2.79806 8.80653 2.84499 8.84759 2.90793 8.82127C2.80873 8.62759 2.93033 8.36127 3.24179 8.29495C3.13504 8.41015 3.07471 8.55992 3.07219 8.71601C3.07219 9.17495 3.20126 9.25285 3.20126 9.5718C3.1991 9.64619 3.17912 9.71902 3.14297 9.78433C3.10682 9.84965 3.05552 9.90559 2.99326 9.94759V9.94232C3.03126 9.94983 3.06723 9.96515 3.09884 9.98727C3.13045 10.0094 3.15698 10.0378 3.17673 10.0707C2.9557 10.1298 2.72245 10.1276 2.50259 10.0644C2.42928 10.0538 2.35927 10.0273 2.29765 9.98669C2.23603 9.94609 2.18434 9.89246 2.14633 9.82969C2.10714 9.74048 2.08691 9.64429 2.08691 9.54706C2.08691 9.44983 2.10714 9.35363 2.14633 9.26443C2.27006 9.00864 2.85353 7.79074 3.03593 7.40338C3.07593 7.32197 3.09706 7.23279 3.09779 7.14232C3.09642 7.09937 3.08646 7.05711 3.06849 7.01797C3.05052 6.97883 3.02489 6.94357 2.99307 6.91423C2.96126 6.88489 2.92388 6.86204 2.8831 6.84699C2.84231 6.83194 2.79891 6.82499 2.75539 6.82653C2.6827 6.8236 2.61155 6.84773 2.55603 6.89413C2.50052 6.94053 2.46469 7.00582 2.45566 7.07706C2.45566 7.16548 2.50366 7.21811 2.57406 7.21811C2.74153 7.21811 2.73193 7.07706 2.69779 6.98864C2.74348 7.00294 2.78295 7.03201 2.80985 7.07116C2.83675 7.11031 2.8495 7.15725 2.84606 7.20443C2.91176 7.21399 2.97147 7.2474 3.01353 7.29811C2.99466 7.325 2.9697 7.34718 2.94063 7.3629C2.91156 7.37861 2.87918 7.38742 2.84606 7.38864C2.87913 7.52338 2.78739 7.58127 2.69779 7.61285C2.72659 7.5139 2.74473 7.40232 2.57406 7.40232C2.52214 7.40875 2.46942 7.40251 2.42051 7.38416C2.37161 7.36581 2.328 7.3359 2.29353 7.29706C2.29353 7.40232 2.27966 7.82338 2.27966 7.82338C2.27219 7.98127 2.49299 7.97706 2.63593 7.92864C2.58259 8.11074 2.47379 8.20969 2.22099 8.18443C2.25955 8.19949 2.29239 8.22603 2.31495 8.26037C2.33751 8.2947 2.34866 8.33513 2.34686 8.37601C2.34143 8.44632 2.32105 8.51472 2.28705 8.57675C2.25305 8.63878 2.20619 8.69304 2.14953 8.73601L2.10899 7.18969V7.1918Z" fill="#FEC50C"/>
<path d="M2.18888 7.1918C2.18888 6.79495 1.82835 6.5918 1.54888 6.5918C1.16382 6.5918 0.960083 6.81706 0.960083 7.1118C0.957557 7.2623 0.994289 7.41092 1.06675 7.54338C1.06675 7.54338 1.69608 8.83601 1.94142 9.33285C1.9753 9.41006 1.98993 9.49417 1.98408 9.57811C1.98338 9.66187 1.94898 9.74191 1.88847 9.80064C1.82796 9.85937 1.74629 9.89197 1.66142 9.89127C1.57655 9.89057 1.49543 9.85663 1.43592 9.79692C1.37641 9.7372 1.34338 9.6566 1.34408 9.57285C1.34408 9.37495 1.45075 9.28759 1.55742 9.28759C1.68862 9.28759 1.74088 9.34127 1.74088 9.4318C1.74088 9.49495 1.70995 9.52232 1.66515 9.52232C1.55315 9.52232 1.58408 9.37285 1.58408 9.37285C1.56936 9.37625 1.55555 9.3827 1.54355 9.39178C1.53154 9.40085 1.52164 9.41234 1.51447 9.42547C1.50731 9.43861 1.50306 9.4531 1.50201 9.46799C1.50095 9.48287 1.50311 9.4978 1.50835 9.5118C1.46683 9.52158 1.4295 9.54405 1.40168 9.57601C1.43033 9.60592 1.46754 9.62648 1.50835 9.63495C1.50196 9.64995 1.49918 9.66621 1.50023 9.68245C1.50128 9.69868 1.50613 9.71446 1.5144 9.72853C1.52267 9.74261 1.53413 9.7546 1.54789 9.76357C1.56164 9.77254 1.57732 9.77823 1.59368 9.78022C1.58044 9.75156 1.57671 9.71951 1.58302 9.68864C1.61834 9.70049 1.65605 9.70366 1.6929 9.69787C1.72974 9.69208 1.76459 9.67751 1.79444 9.65542C1.82428 9.63333 1.84822 9.60439 1.86416 9.57111C1.88011 9.53783 1.88759 9.50121 1.88595 9.46443C1.88927 9.41348 1.88023 9.36249 1.85958 9.31568C1.83894 9.26887 1.80728 9.2276 1.76723 9.19528C1.72718 9.16296 1.6799 9.14054 1.62931 9.12986C1.57873 9.11919 1.52629 9.12057 1.47635 9.1339C1.507 9.11908 1.53306 9.09641 1.55182 9.06827C1.57058 9.04013 1.58135 9.00755 1.58302 8.9739C1.54869 8.98601 1.51275 8.9931 1.47635 8.99495C1.52375 8.93479 1.5493 8.86064 1.54888 8.78443C1.49982 8.80653 1.45288 8.84759 1.38995 8.82127C1.48915 8.62759 1.36755 8.36127 1.05608 8.29495C1.16284 8.41015 1.22317 8.55992 1.22568 8.71601C1.22568 9.17495 1.09662 9.25285 1.09662 9.5718C1.09878 9.64619 1.11875 9.71902 1.1549 9.78433C1.19106 9.84965 1.24236 9.90559 1.30462 9.94759V9.94232C1.26662 9.94983 1.23065 9.96515 1.19904 9.98727C1.16743 10.0094 1.14089 10.0378 1.12115 10.0707C1.34218 10.1298 1.57543 10.1276 1.79528 10.0644C1.86857 10.0538 1.93855 10.0272 2.00016 9.9866C2.06178 9.946 2.11348 9.89241 2.15155 9.82969C2.19074 9.74048 2.21096 9.64429 2.21096 9.54706C2.21096 9.44983 2.19074 9.35363 2.15155 9.26443C2.02675 9.00548 1.44115 7.78864 1.25982 7.40022C1.21985 7.3188 1.19872 7.22963 1.19795 7.13917C1.19919 7.09617 1.20905 7.05384 1.22697 7.01464C1.2449 6.97543 1.27052 6.94012 1.30236 6.91075C1.33421 6.88138 1.37164 6.85854 1.41249 6.84354C1.45334 6.82854 1.4968 6.82169 1.54035 6.82338C1.61304 6.82044 1.68419 6.84457 1.73971 6.89097C1.79523 6.93737 1.83105 7.00266 1.84008 7.0739C1.84008 7.16232 1.79208 7.21495 1.72168 7.21495C1.55422 7.21495 1.56382 7.0739 1.59795 6.98548C1.55226 6.99979 1.51279 7.02885 1.48589 7.068C1.459 7.10715 1.44624 7.15409 1.44968 7.20127C1.38338 7.21006 1.32284 7.24312 1.28008 7.2939C1.29895 7.32079 1.32391 7.34297 1.35298 7.35869C1.38205 7.3744 1.41443 7.38321 1.44755 7.38443C1.41448 7.51917 1.50622 7.57706 1.59582 7.60864C1.56702 7.50969 1.54888 7.39811 1.71955 7.39811C1.77147 7.40454 1.82419 7.3983 1.8731 7.37995C1.92201 7.3616 1.96561 7.33169 2.00008 7.29285C2.00008 7.39811 2.01395 7.81917 2.01395 7.81917C2.02142 7.97706 1.80062 7.97285 1.65768 7.92443C1.71102 8.10653 1.81982 8.20548 2.07262 8.18022C2.03386 8.19511 2.00079 8.22158 1.97803 8.25593C1.95527 8.29028 1.94396 8.33079 1.94568 8.3718C1.95136 8.44333 1.97248 8.51284 2.00762 8.57565C2.04276 8.63847 2.09111 8.69315 2.14942 8.73601L2.18995 7.18969L2.18888 7.1918Z" fill="#FEC50C"/>
<path d="M2.18888 5.99952C2.18888 6.39636 1.82835 6.59952 1.54888 6.59952C1.16382 6.60373 0.960083 6.37847 0.960083 6.08373C0.957557 5.93322 0.994289 5.78461 1.06675 5.65215C1.06675 5.65215 1.69608 4.35952 1.94142 3.86268C1.97325 3.78787 1.98712 3.70681 1.98195 3.62583C1.98124 3.54208 1.94685 3.46204 1.88634 3.40331C1.82583 3.34458 1.74415 3.31198 1.65928 3.31268C1.57441 3.31337 1.4933 3.34731 1.43379 3.40703C1.37428 3.46675 1.34124 3.54735 1.34195 3.6311C1.34195 3.82899 1.44862 3.91636 1.55528 3.91636C1.68648 3.91636 1.73875 3.86268 1.73875 3.77215C1.73875 3.70899 1.70782 3.68162 1.66302 3.68162C1.55102 3.68162 1.58195 3.8311 1.58195 3.8311C1.56625 3.82782 1.5515 3.8211 1.5388 3.81141C1.5261 3.80173 1.51578 3.78935 1.5086 3.77518C1.50142 3.76102 1.49758 3.74544 1.49735 3.72961C1.49712 3.71377 1.50052 3.69809 1.50728 3.68373C1.46576 3.67395 1.42843 3.65147 1.40062 3.61952C1.42926 3.58961 1.46648 3.56905 1.50728 3.56057C1.5009 3.54557 1.49812 3.52932 1.49917 3.51308C1.50022 3.49684 1.50507 3.48107 1.51334 3.46699C1.5216 3.45292 1.53307 3.44093 1.54682 3.43196C1.56058 3.42299 1.57625 3.41729 1.59262 3.41531C1.57937 3.44396 1.57564 3.47601 1.58195 3.50689C1.61727 3.49504 1.65499 3.49187 1.69183 3.49766C1.72867 3.50345 1.76353 3.51802 1.79337 3.54011C1.82322 3.56219 1.84715 3.59113 1.8631 3.62442C1.87904 3.6577 1.88652 3.69432 1.88488 3.7311C1.8882 3.78204 1.87917 3.83304 1.85852 3.87985C1.83787 3.92665 1.80621 3.96793 1.76616 4.00025C1.72611 4.03256 1.67884 4.05499 1.62825 4.06566C1.57766 4.07634 1.52522 4.07495 1.47528 4.06162C1.50593 4.07645 1.53199 4.09911 1.55075 4.12725C1.56951 4.15539 1.58029 4.18798 1.58195 4.22162C1.54762 4.20952 1.51169 4.20243 1.47528 4.20057C1.52269 4.26074 1.54823 4.33488 1.54782 4.4111C1.49875 4.38899 1.45182 4.34794 1.38888 4.37426C1.48808 4.56794 1.36648 4.83426 1.05502 4.90057C1.16177 4.78538 1.2221 4.6356 1.22462 4.47952C1.22462 4.02057 1.09555 3.94268 1.09555 3.62373C1.09771 3.54934 1.11769 3.47651 1.15384 3.41119C1.18999 3.34588 1.24129 3.28994 1.30355 3.24794V3.2532C1.26555 3.24569 1.22958 3.23038 1.19797 3.20825C1.16636 3.18613 1.13983 3.15769 1.12008 3.12478C1.34111 3.06571 1.57436 3.06789 1.79422 3.1311C1.86751 3.14214 1.9374 3.16911 1.99883 3.21007C2.06026 3.25103 2.11169 3.30496 2.14942 3.36794C2.18861 3.45715 2.20883 3.55334 2.20883 3.65057C2.20883 3.7478 2.18861 3.844 2.14942 3.9332C2.02568 4.18899 1.44222 5.40689 1.25982 5.79426C1.21985 5.87568 1.19872 5.96484 1.19795 6.05531C1.19919 6.0983 1.20905 6.14063 1.22697 6.17984C1.2449 6.21904 1.27052 6.25435 1.30236 6.28372C1.33421 6.31309 1.37164 6.33594 1.41249 6.35093C1.45334 6.36593 1.4968 6.37279 1.54035 6.3711C1.61304 6.37403 1.68419 6.3499 1.73971 6.3035C1.79523 6.2571 1.83105 6.19181 1.84008 6.12057C1.84008 6.03215 1.79208 5.97952 1.72168 5.97952C1.55422 5.97952 1.56382 6.12057 1.59795 6.20899C1.55298 6.19533 1.51385 6.16738 1.48665 6.1295C1.45945 6.09161 1.4457 6.04591 1.44755 5.99952C1.38138 5.98915 1.3216 5.95457 1.28008 5.90268C1.29895 5.87579 1.32391 5.85361 1.35298 5.83789C1.38205 5.82218 1.41443 5.81336 1.44755 5.81215C1.41448 5.67741 1.50622 5.61952 1.59582 5.58794C1.56702 5.68689 1.54888 5.79847 1.71955 5.79847C1.77147 5.79204 1.82419 5.79828 1.8731 5.81663C1.922 5.83498 1.96561 5.86489 2.00008 5.90373C2.00008 5.79847 2.01395 5.37741 2.01395 5.37741C2.02142 5.21952 1.80062 5.22373 1.65768 5.27215C1.71102 5.09005 1.81982 4.9911 2.07262 5.01636C2.03386 5.00147 2.00079 4.975 1.97803 4.94065C1.95527 4.9063 1.94396 4.86579 1.94568 4.82478C1.95153 4.7537 1.97262 4.68465 2.00756 4.62223C2.0425 4.5598 2.09049 4.50541 2.14835 4.46268L2.18888 5.99952Z" fill="#FEC50C"/>
<path d="M2.18853 12.9465C2.18853 13.3423 1.82799 13.5465 1.54853 13.5465C1.16666 13.5465 0.963994 13.3212 0.963994 13.0265C0.96142 12.876 0.998155 12.7273 1.07066 12.5949C1.07066 12.5949 1.69999 11.3023 1.94533 10.8054C1.97716 10.7306 1.99103 10.6496 1.98586 10.5686C1.98515 10.4848 1.95076 10.4048 1.89025 10.3461C1.82974 10.2873 1.74806 10.2547 1.66319 10.2554C1.57832 10.2561 1.49721 10.2901 1.4377 10.3498C1.37819 10.4095 1.34515 10.4901 1.34586 10.5738C1.34586 10.7717 1.45253 10.8591 1.55919 10.8591C1.69039 10.8591 1.74266 10.8054 1.74266 10.7149C1.74266 10.6517 1.71173 10.6244 1.66693 10.6244C1.55493 10.6244 1.58586 10.7738 1.58586 10.7738C1.57114 10.7704 1.55732 10.764 1.54532 10.7549C1.53332 10.7458 1.52341 10.7344 1.51625 10.7212C1.50909 10.7081 1.50484 10.6936 1.50379 10.6787C1.50273 10.6638 1.50489 10.6489 1.51013 10.6349C1.46861 10.6251 1.43128 10.6026 1.40346 10.5707C1.43211 10.5408 1.46932 10.5202 1.51013 10.5117C1.50374 10.4967 1.50096 10.4805 1.50201 10.4643C1.50306 10.448 1.50791 10.4322 1.51618 10.4182C1.52445 10.4041 1.53591 10.3921 1.54967 10.3831C1.56342 10.3742 1.5791 10.3685 1.59546 10.3665C1.58222 10.3951 1.57848 10.4272 1.58479 10.4581C1.62011 10.4462 1.65783 10.443 1.69467 10.4488C1.73152 10.4546 1.76637 10.4692 1.79622 10.4913C1.82606 10.5134 1.84999 10.5423 1.86594 10.5756C1.88189 10.6089 1.88937 10.6455 1.88773 10.6823C1.89105 10.7332 1.88201 10.7842 1.86136 10.831C1.84071 10.8778 1.80905 10.9191 1.76901 10.9514C1.72896 10.9837 1.68168 11.0062 1.63109 11.0168C1.5805 11.0275 1.52806 11.0261 1.47813 11.0128C1.50885 11.0275 1.53497 11.0502 1.55374 11.0783C1.57251 11.1065 1.58324 11.1391 1.58479 11.1728C1.55047 11.1607 1.51453 11.1536 1.47813 11.1517C1.52553 11.2119 1.55108 11.2861 1.55066 11.3623C1.50159 11.3402 1.45466 11.2991 1.39173 11.3254C1.49093 11.5191 1.36933 11.7854 1.05786 11.8517C1.16462 11.7365 1.22495 11.5868 1.22746 11.4307C1.22746 10.9717 1.09839 10.8938 1.09839 10.5749C1.10056 10.5005 1.12053 10.4277 1.15668 10.3624C1.19283 10.2971 1.24414 10.2411 1.30639 10.1991V10.2044C1.2684 10.1969 1.23242 10.1815 1.20082 10.1594C1.16921 10.1373 1.14267 10.1089 1.12293 10.076C1.34396 10.0169 1.57721 10.0191 1.79706 10.0823C1.87035 10.0929 1.94033 10.1195 2.00194 10.1601C2.06355 10.2007 2.11526 10.2543 2.15333 10.317C2.19252 10.4062 2.21274 10.5024 2.21274 10.5996C2.21274 10.6969 2.19252 10.7931 2.15333 10.8823C2.02959 11.1381 1.44613 12.356 1.26373 12.7433C1.22376 12.8247 1.20263 12.9139 1.20186 13.0044C1.2031 13.0474 1.21296 13.0897 1.23088 13.1289C1.24881 13.1681 1.27443 13.2034 1.30628 13.2328C1.33812 13.2622 1.37555 13.285 1.4164 13.3C1.45725 13.315 1.50071 13.3219 1.54426 13.3202C1.61695 13.3231 1.68811 13.299 1.74362 13.2526C1.79914 13.2062 1.83496 13.1409 1.84399 13.0696C1.84399 12.9812 1.79599 12.9286 1.72559 12.9286C1.55813 12.9286 1.56773 13.0696 1.60186 13.1581C1.55618 13.1438 1.5167 13.1147 1.48981 13.0755C1.46291 13.0364 1.45015 12.9894 1.45359 12.9423C1.38446 12.9324 1.32203 12.8961 1.27973 12.8412C1.2986 12.8143 1.32356 12.7921 1.35262 12.7764C1.38169 12.7607 1.41407 12.7519 1.44719 12.7507C1.41413 12.616 1.50586 12.5581 1.59546 12.5265C1.56666 12.6254 1.54853 12.737 1.71919 12.737C1.77111 12.7306 1.82383 12.7368 1.87274 12.7552C1.92165 12.7735 1.96525 12.8034 1.99973 12.8423C1.99973 12.737 2.01359 12.316 2.01359 12.316C2.02106 12.1581 1.80026 12.1623 1.65733 12.2107C1.71066 12.0286 1.81946 11.9296 2.07226 11.9549C2.0335 11.94 2.00043 11.9135 1.97768 11.8792C1.95492 11.8448 1.94361 11.8043 1.94533 11.7633C1.95132 11.6924 1.97248 11.6236 2.00742 11.5613C2.04235 11.4991 2.09027 11.4449 2.14799 11.4023L2.18853 12.9465Z" fill="#FEC50C"/>
<path d="M2.10917 12.9465C2.10917 13.3423 2.46971 13.5465 2.74917 13.5465C3.13104 13.5465 3.33371 13.3212 3.33371 13.0265C3.33623 12.876 3.2995 12.7274 3.22704 12.5949C3.22704 12.5949 2.59771 11.3023 2.35237 10.8054C2.32054 10.7306 2.30667 10.6496 2.31184 10.5686C2.31255 10.4848 2.34694 10.4048 2.40745 10.3461C2.46796 10.2873 2.54964 10.2547 2.63451 10.2554C2.71938 10.2561 2.80049 10.2901 2.86 10.3498C2.91951 10.4095 2.95255 10.4901 2.95184 10.5738C2.95184 10.7717 2.84517 10.8591 2.73851 10.8591C2.60731 10.8591 2.55504 10.8054 2.55504 10.7149C2.55504 10.6517 2.58597 10.6244 2.63077 10.6244C2.74277 10.6244 2.71184 10.7738 2.71184 10.7738C2.72656 10.7704 2.74038 10.764 2.75238 10.7549C2.76438 10.7458 2.77429 10.7344 2.78145 10.7212C2.78861 10.7081 2.79286 10.6936 2.79392 10.6787C2.79497 10.6638 2.79281 10.6489 2.78757 10.6349C2.82909 10.6251 2.86642 10.6026 2.89424 10.5707C2.86555 10.5408 2.82836 10.5203 2.78757 10.5117C2.79396 10.4967 2.79674 10.4805 2.79569 10.4643C2.79464 10.448 2.78979 10.4322 2.78152 10.4182C2.77325 10.4041 2.76179 10.3921 2.74803 10.3831C2.73428 10.3742 2.7186 10.3685 2.70224 10.3665C2.71548 10.3951 2.71922 10.4272 2.71291 10.4581C2.67759 10.4462 2.63987 10.443 2.60303 10.4488C2.56619 10.4546 2.53133 10.4692 2.50149 10.4913C2.47164 10.5134 2.44771 10.5423 2.43176 10.5756C2.41581 10.6089 2.40834 10.6455 2.40997 10.6823C2.40665 10.7332 2.41569 10.7842 2.43634 10.831C2.45699 10.8778 2.48865 10.9191 2.52869 10.9514C2.56874 10.9837 2.61602 11.0062 2.66661 11.0168C2.7172 11.0275 2.76964 11.0261 2.81957 11.0128C2.78886 11.0275 2.76273 11.0502 2.74396 11.0783C2.72519 11.1065 2.71446 11.1391 2.71291 11.1728C2.74723 11.1607 2.78317 11.1536 2.81957 11.1517C2.77217 11.2119 2.74662 11.2861 2.74704 11.3623C2.79611 11.3402 2.84304 11.2991 2.90597 11.3254C2.80677 11.5191 2.92837 11.7854 3.23984 11.8517C3.13309 11.7365 3.07276 11.5868 3.07024 11.4307C3.07024 10.9717 3.19931 10.8938 3.19931 10.5749C3.19714 10.5005 3.17717 10.4277 3.14102 10.3624C3.10487 10.2971 3.05357 10.2411 2.99131 10.1991V10.2044C3.0293 10.1969 3.06528 10.1815 3.09688 10.1594C3.12849 10.1373 3.15503 10.1089 3.17477 10.076C2.95375 10.0169 2.72049 10.0191 2.50064 10.0823C2.42733 10.0929 2.35732 10.1194 2.2957 10.16C2.23407 10.2006 2.18238 10.2542 2.14437 10.317C2.10518 10.4062 2.08496 10.5024 2.08496 10.5996C2.08496 10.6969 2.10518 10.7931 2.14437 10.8823C2.26811 11.1381 2.85157 12.356 3.03397 12.7433C3.07394 12.8247 3.09507 12.9139 3.09584 13.0044C3.09446 13.0473 3.0845 13.0896 3.06653 13.1287C3.04856 13.1679 3.02293 13.2031 2.99112 13.2325C2.95931 13.2618 2.92193 13.2847 2.88114 13.2997C2.84036 13.3148 2.79696 13.3217 2.75344 13.3202C2.68075 13.3231 2.6096 13.299 2.55408 13.2526C2.49856 13.2062 2.46274 13.1409 2.45371 13.0696C2.45371 12.9812 2.50171 12.9286 2.57211 12.9286C2.73957 12.9286 2.72997 13.0696 2.69584 13.1581C2.74153 13.1438 2.781 13.1147 2.8079 13.0755C2.83479 13.0364 2.84755 12.9894 2.84411 12.9423C2.9098 12.9327 2.96952 12.8993 3.01157 12.8486C2.9927 12.8217 2.96775 12.7995 2.93868 12.7838C2.90961 12.7681 2.87723 12.7593 2.84411 12.7581C2.87717 12.6233 2.78544 12.5654 2.69584 12.5338C2.72464 12.6328 2.74277 12.7444 2.57211 12.7444C2.52019 12.738 2.46747 12.7442 2.41856 12.7625C2.36965 12.7809 2.32605 12.8108 2.29157 12.8496C2.29157 12.7444 2.27771 12.3233 2.27771 12.3233C2.27024 12.1654 2.49104 12.1696 2.63397 12.2181C2.58064 12.036 2.47184 11.937 2.21904 11.9623C2.26002 11.947 2.29477 11.9188 2.3179 11.8821C2.34104 11.8454 2.35128 11.8021 2.34704 11.7591C2.34111 11.6882 2.31998 11.6193 2.28504 11.5571C2.2501 11.4948 2.20215 11.4406 2.14437 11.3981L2.10917 12.9465Z" fill="#FEC50C"/>
<path d="M2.14884 1.71666C2.14884 1.71666 2.33977 1.55877 2.40377 1.63771C2.51044 1.76508 2.08377 2.39982 2.08377 2.62298C2.08377 2.98929 2.33231 3.08929 2.63844 3.14192C2.81827 3.15914 2.99958 3.15419 3.17817 3.12719C3.15679 3.09051 3.12555 3.06039 3.0879 3.04014C3.05025 3.01989 3.00766 3.01031 2.96484 3.01245C3.03824 2.97492 3.09953 2.91785 3.14176 2.84772C3.18399 2.77758 3.20547 2.69717 3.20377 2.61561C3.20377 2.29982 3.07257 2.17035 3.07257 1.81456C3.09265 1.65484 3.14958 1.5018 3.23897 1.36719C3.17882 1.36984 3.1201 1.38623 3.06745 1.41506C3.01479 1.44389 2.96964 1.48438 2.93552 1.53335C2.90141 1.58232 2.87927 1.63843 2.87084 1.69727C2.86242 1.75611 2.86794 1.81607 2.88697 1.87245C2.86487 1.87642 2.84212 1.87515 2.82061 1.86874C2.7991 1.86234 2.77943 1.85098 2.76324 1.83561C2.7571 1.86878 2.75913 1.90293 2.76915 1.93517C2.77918 1.96741 2.7969 1.9968 2.82084 2.02087C2.78457 2.03982 2.75791 2.02824 2.70031 2.02087C2.7066 2.05965 2.72179 2.0965 2.74471 2.12861C2.76764 2.16072 2.79769 2.18723 2.83257 2.20613C2.78443 2.19027 2.73315 2.18594 2.68297 2.1935C2.6328 2.20105 2.58516 2.22028 2.544 2.24958C2.50284 2.27889 2.46933 2.31744 2.44625 2.36205C2.42317 2.40666 2.41116 2.45605 2.41124 2.50613C2.40663 2.56416 2.42475 2.62171 2.46186 2.66695C2.49897 2.71219 2.55224 2.74166 2.61071 2.74929C2.64868 2.7486 2.68567 2.73729 2.71737 2.71666C2.72378 2.73715 2.72595 2.75871 2.72376 2.78005C2.72156 2.80139 2.71503 2.82207 2.70457 2.84087C2.77711 2.82192 2.82191 2.77982 2.78991 2.6914C2.81447 2.69028 2.83855 2.68429 2.86072 2.6738C2.88289 2.66332 2.9027 2.64854 2.91897 2.63035C2.90381 2.61105 2.88417 2.59562 2.86171 2.58536C2.83925 2.57511 2.81463 2.57032 2.78991 2.5714C2.83044 2.48929 2.78991 2.44298 2.71951 2.40613C2.71951 2.40613 2.76111 2.5714 2.65444 2.5714C2.60644 2.5714 2.56271 2.55561 2.56271 2.48613C2.5642 2.4651 2.57013 2.4446 2.58012 2.42595C2.5901 2.40731 2.60391 2.39092 2.62068 2.37784C2.63745 2.36477 2.65679 2.35528 2.67748 2.35001C2.69817 2.34473 2.71975 2.34377 2.74084 2.34719C2.86457 2.35245 2.96484 2.4314 2.96484 2.62719C2.96484 2.82298 2.81764 2.89666 2.62351 2.90298C2.58498 2.90884 2.54561 2.90629 2.50819 2.89551C2.47077 2.88473 2.43619 2.86598 2.4069 2.84059C2.37761 2.8152 2.35432 2.78378 2.33867 2.74855C2.32302 2.71332 2.31538 2.67512 2.31631 2.63666C2.31631 2.39982 2.66297 1.85877 2.66297 1.64719C2.66123 1.61223 2.65238 1.57797 2.63696 1.54645C2.62153 1.51493 2.59983 1.48679 2.57316 1.46372C2.54649 1.44064 2.51539 1.42309 2.48171 1.41211C2.44803 1.40113 2.41246 1.39695 2.37711 1.39982C2.24634 1.41598 2.12626 1.47935 2.04004 1.57771L2.14671 1.7114L2.14884 1.71666Z" fill="#FEC50C"/>
<path d="M2.14979 1.71666C2.14979 1.71666 1.95886 1.55877 1.89486 1.63771C1.78819 1.76508 2.21486 2.39982 2.21486 2.62298C2.21486 2.98929 1.96633 3.08929 1.66019 3.14192C1.48036 3.15914 1.29905 3.15419 1.12046 3.12719C1.14184 3.09051 1.17309 3.06039 1.21073 3.04014C1.24838 3.01989 1.29097 3.01031 1.33379 3.01245C1.26039 2.97492 1.1991 2.91785 1.15687 2.84772C1.11465 2.77758 1.09316 2.69717 1.09486 2.61561C1.09486 2.29982 1.22606 2.17035 1.22606 1.81456C1.20566 1.65475 1.14836 1.5017 1.05859 1.36719C1.11875 1.36984 1.17746 1.38623 1.23012 1.41506C1.28277 1.44389 1.32793 1.48438 1.36205 1.53335C1.39616 1.58232 1.4183 1.63843 1.42672 1.69727C1.43515 1.75611 1.42963 1.81607 1.41059 1.87245C1.4327 1.87642 1.45545 1.87515 1.47696 1.86874C1.49847 1.86234 1.51813 1.85098 1.53433 1.83561C1.54046 1.86878 1.53844 1.90293 1.52841 1.93517C1.51839 1.96741 1.50066 1.9968 1.47673 2.02087C1.51299 2.03982 1.53966 2.02824 1.59726 2.02087C1.59096 2.05965 1.57578 2.0965 1.55285 2.12861C1.52993 2.16072 1.49988 2.18723 1.46499 2.20613C1.51314 2.19027 1.56442 2.18594 1.61459 2.1935C1.66477 2.20105 1.7124 2.22028 1.75356 2.24958C1.79473 2.27889 1.82823 2.31744 1.85132 2.36205C1.8744 2.40666 1.8864 2.45605 1.88633 2.50613C1.89093 2.56416 1.87282 2.62171 1.83571 2.66695C1.7986 2.71219 1.74533 2.74166 1.68686 2.74929C1.6489 2.74854 1.61193 2.73723 1.58019 2.71666C1.57378 2.73715 1.57161 2.75871 1.57381 2.78005C1.57601 2.80139 1.58253 2.82207 1.59299 2.84087C1.52046 2.82192 1.47566 2.77982 1.50766 2.6914C1.48309 2.69034 1.45899 2.68438 1.43681 2.67389C1.41462 2.66339 1.39482 2.64858 1.37859 2.63035C1.39376 2.61105 1.4134 2.59562 1.43585 2.58536C1.45831 2.57511 1.48294 2.57032 1.50766 2.5714C1.46713 2.48929 1.50766 2.44298 1.57806 2.40613C1.57806 2.40613 1.53646 2.5714 1.64313 2.5714C1.69113 2.5714 1.73486 2.55561 1.73486 2.48613C1.73336 2.4651 1.72743 2.4446 1.71745 2.42595C1.70747 2.40731 1.69365 2.39092 1.67689 2.37784C1.66012 2.36477 1.64077 2.35528 1.62008 2.35001C1.59939 2.34473 1.57781 2.34377 1.55673 2.34719C1.43299 2.35245 1.33166 2.4314 1.33166 2.62719C1.33166 2.82298 1.47886 2.89666 1.67299 2.90298C1.71152 2.90884 1.75089 2.90629 1.78831 2.89551C1.82573 2.88473 1.86031 2.86598 1.8896 2.84059C1.91889 2.8152 1.94218 2.78378 1.95783 2.74855C1.97348 2.71332 1.98112 2.67512 1.98019 2.63666C1.98019 2.39982 1.63353 1.85877 1.63353 1.64719C1.63581 1.61249 1.64509 1.5786 1.66083 1.54749C1.67656 1.51639 1.69844 1.4887 1.72516 1.46605C1.75189 1.4434 1.78294 1.42624 1.81647 1.41559C1.85001 1.40494 1.88536 1.40101 1.92046 1.40403C2.05062 1.41909 2.17061 1.48092 2.25753 1.57771L2.15086 1.7114L2.14979 1.71666Z" fill="#FEC50C"/>
</g>
<defs>
<clipPath id="clip0_10563_68899">
<rect width="32" height="20" fill="white"/>
</clipPath>
</defs>
</svg>
